<svg xmlns="http://www.w3.org/2000/svg" viewBox="450 450 1150 1150">
<path d="M 996.804 469.903 C 1303.87 454.631 1565.13 691.259 1580.25 998.329 C 1595.36 1305.4 1358.6 1566.54 1051.52 1581.5 C 744.667 1596.45 483.752 1359.9 468.647 1053.05 C 453.543 746.199 689.963 485.164 996.804 469.903 z" fill="rgb(201,147,47)"/>
<path d="M 994.897 487.67 C 1291.87 471.372 1545.86 698.811 1562.32 995.771 C 1578.79 1292.73 1351.49 1546.85 1054.54 1563.48 C 757.354 1580.12 502.99 1352.61 486.514 1055.41 C 470.038 758.219 697.694 503.982 994.897 487.67 z" fill="rgb(247,232,196)"/>
<path d="M 1018.61 491.577 C 1313.75 488.364 1555.56 725.126 1558.57 1020.27 C 1561.58 1315.41 1324.65 1557.05 1029.51 1559.86 C 734.649 1562.67 493.291 1326.02 490.285 1031.16 C 487.278 736.307 723.76 494.786 1018.61 491.577 z" fill="rgb(201,147,47)"/>
<path d="M 995.768 509.741 C 1280.66 493.864 1524.5 711.905 1540.45 996.795 C 1556.4 1281.68 1338.42 1525.58 1053.54 1541.6 C 768.549 1557.63 524.545 1339.56 508.59 1054.56 C 492.635 769.571 710.772 525.624 995.768 509.741 z" fill="rgb(247,232,196)"/>
<path d="M 1004.62 561.185 C 1260.87 550.308 1477.37 749.308 1488.09 1005.56 C 1498.8 1261.82 1299.66 1478.19 1043.4 1488.74 C 787.37 1499.28 571.234 1300.36 560.531 1044.34 C 549.829 788.316 748.609 572.052 1004.62 561.185 z" fill="rgb(201,147,47)"/>
<path d="M 995.37 580.363 C 1240.77 564.442 1452.63 750.424 1468.64 995.819 C 1484.65 1241.21 1298.74 1453.14 1053.35 1469.23 C 807.839 1485.33 595.785 1299.31 579.77 1053.8 C 563.756 808.283 749.849 596.293 995.37 580.363 z" fill="rgb(247,232,196)"/>
<path d="M 831.872 660.403 C 845.665 652.15 871.866 640.266 886.793 634.933 C 992.053 597.325 1101.21 604.431 1201.95 651.233 C 1223.99 662.181 1240.94 671.735 1261.15 686.085 C 1270.18 692.901 1280.67 701.122 1288.73 709.068 C 1271.04 724.106 1253.6 739.448 1236.44 755.086 C 1225.55 764.863 1198.97 790.934 1186.51 796.422 C 1152.94 810.091 1114.88 805.193 1079.51 805.637 C 1063.24 805.841 1051.14 802.492 1038.39 814.608 C 1001.97 849.199 966.208 884.491 929.418 918.704 C 922.648 925 912.079 934.078 911.057 943.619 C 910.481 949.073 912.107 954.53 915.574 958.779 C 919.371 963.389 924.933 966.189 930.898 966.495 C 940.642 967.078 949.167 960.825 955.784 954.33 C 983.823 926.806 1012.4 899.86 1041.33 873.254 L 1096.02 873.309 C 1107.74 873.258 1140.15 868.116 1138.01 887.015 C 1136.79 897.779 1113.25 914.792 1105.1 923.515 L 1247.31 1068.89 C 1280.67 1038.38 1316.87 1013.15 1319.35 965.121 C 1343.12 940.168 1382.67 906.399 1409.18 882.535 C 1411.94 891 1415.18 900.252 1417.55 908.759 C 1425.52 936.977 1432.69 967.753 1434.21 997.161 C 1439.55 1050.59 1429.31 1108.95 1410.87 1158.97 C 1406.52 1169.57 1399.17 1188.49 1393.61 1198.23 C 1385.67 1216.59 1376.07 1231.93 1364.99 1248.34 C 1351.89 1267.31 1334.81 1289 1318.84 1305.77 C 1300.07 1324.86 1283.5 1341.35 1262.25 1357.87 L 1252.36 1365.37 C 1189.39 1408.93 1130.07 1436.67 1052.88 1441.97 C 934.672 1450.09 843.186 1407.67 755.952 1332.3 C 693.975 1274.92 649.276 1201.35 626.903 1119.91 L 622.279 1101.27 L 619.271 1084.85 C 615.553 1060.72 612.57 1019.95 615.813 995.684 C 615.867 992.009 616.367 988.367 616.783 984.712 C 618.357 961.563 624.855 935.16 630.509 912.781 C 632.764 903.867 637.422 890.632 640.35 881.532 C 664.901 902.102 696.551 932.288 720.799 954.454 C 727.096 1015.97 755.307 1025.52 794.048 1064.99 C 807.017 1054.93 816.063 1049.26 832.857 1047.66 C 860.748 1045.01 885.123 1067.3 887.049 1094.75 C 898.095 1094.65 905.858 1094.52 916.285 1099.11 C 936.818 1108.14 948.854 1126.2 949.022 1148.46 C 982.72 1149.39 1008.12 1172.32 1004.05 1207.21 C 1010.71 1208.67 1013.47 1209.4 1019.87 1211.81 C 1017.56 1201.33 1016.63 1192.9 1028.14 1187.75 C 1042.97 1181.11 1055.49 1197.34 1064.61 1206.74 C 1078.09 1221.15 1090.69 1233.7 1104.38 1248.14 C 1117.25 1261.74 1131.13 1269.84 1144.99 1250.94 C 1147.18 1247.96 1149.12 1238.1 1147.61 1234.84 C 1142.74 1224.27 1131.89 1215.29 1123.59 1207.14 L 1081.64 1165.09 C 1070.88 1154.25 1055.87 1141.68 1050.59 1127.09 C 1045.03 1111.69 1066.64 1103.83 1075.75 1111.93 C 1101.63 1134.96 1125.65 1161.87 1150.17 1186.56 C 1158.66 1195.1 1164.42 1202.9 1174.46 1208.85 C 1179.17 1209.17 1183.76 1209.02 1188.48 1208.96 C 1221.19 1191.19 1191.02 1167.75 1175.25 1151.73 L 1126.06 1101.94 C 1117.11 1092.87 1091.95 1071.35 1095.35 1060.32 C 1105.63 1026.97 1135.1 1062.53 1142.77 1070.25 L 1194.55 1122.99 C 1204.35 1133.01 1222.46 1155.18 1236.22 1156.64 C 1242.16 1157.31 1248.1 1155.41 1252.54 1151.41 C 1271.12 1134.53 1247.57 1116.79 1236.27 1105.87 C 1227.16 1097.02 1218.2 1088.03 1209.38 1078.89 C 1157.22 1024.67 1098.69 968.124 1048.34 913.246 L 1008.17 950.984 C 993.592 964.899 979.316 980.729 962.186 991.382 C 912.962 1021.99 848.029 971.754 878.898 917.912 C 884.139 908.771 907.966 888.158 916.556 879.949 L 986.377 813.153 C 982.739 808.264 982.085 807.79 976.995 804.32 C 950.134 802.991 921.94 804.642 894.898 804.124 C 872.094 804.877 862.871 798.823 846.534 783.574 C 819.313 758.167 786.659 733.761 760.824 707.091 C 769.155 701.905 777.556 694.249 786.022 688.452 C 797.066 679.398 819.175 666.983 831.872 660.403 z" fill="rgb(201,147,47)"/>
<path d="M 1414.8 915.595 C 1423.33 942.602 1427.42 971.762 1429.66 999.92 C 1430.06 1004.93 1430.21 1010.4 1430.88 1015.32 C 1430.47 1026.61 1430.77 1038.18 1430.05 1049.36 C 1427.6 1087.92 1419.02 1123.69 1405.64 1159.8 C 1403.96 1164.04 1395.2 1184.78 1394.35 1187.79 C 1383.77 1208.02 1374.33 1224.57 1362.61 1244.05 C 1346.19 1266.2 1335.3 1280.29 1316.91 1300.53 C 1300.59 1317.28 1281.49 1336.91 1262.91 1351.31 C 1257.67 1355.35 1252.09 1359.82 1246.76 1363.66 C 1081.66 1479.79 905.135 1456.27 756.833 1327.04 C 693.937 1265.98 654.275 1200.78 630.599 1116.73 C 628.946 1111.85 626.364 1099.99 624.975 1094.48 C 624.959 1091.87 623.413 1083.7 622.919 1080.71 C 620.596 1064.81 619.168 1048.79 618.644 1032.73 C 619.096 1022.54 618.984 1010.59 619.108 1000.27 C 619.84 996.095 620.282 990.499 620.649 986.222 C 622.742 961.844 627.659 939.551 634.214 916.015 C 647.818 927.151 669.611 948.132 682.222 960.644 C 697.485 1034.03 718.709 1045.2 771.513 1091.41 C 760.09 1101.62 752.576 1113.6 752.15 1129.39 C 751.877 1143.15 757.123 1156.45 766.718 1166.33 C 777.774 1177.67 791.218 1181.78 806.611 1182.03 C 812.564 1218.02 828.877 1231.91 865.73 1232 C 866.188 1266.52 889.71 1281.41 921.626 1282.18 C 921.642 1283.02 921.668 1283.86 921.703 1284.69 C 923.486 1324.85 963.234 1344.11 996.98 1324.21 C 1005.9 1318.95 1010.54 1314.18 1017.01 1306.2 C 1029.86 1321.69 1045.19 1339.73 1066.26 1341.74 C 1096.9 1344.67 1118.54 1321.29 1121.09 1292.44 C 1153.53 1290.71 1176.35 1274.92 1177.06 1240.11 C 1237.73 1236.68 1227.83 1190.19 1235.27 1185.91 C 1236.34 1185.29 1239.53 1185.09 1240.83 1184.83 C 1252.76 1182.46 1262.15 1180.07 1271.52 1171.73 C 1281.48 1162.79 1287.31 1150.13 1287.65 1136.75 C 1288.18 1119 1280.63 1108.17 1269.5 1095.97 C 1319.95 1050.35 1347.15 1031.72 1362.69 962.763 C 1380.37 947.391 1397.74 931.665 1414.8 915.595 z" fill="rgb(33,28,21)"/>
<path d="M 841.158 660.386 C 844.144 659.481 851.459 655.36 854.76 653.833 C 964.424 603.091 1078.43 604.304 1190.01 651.32 C 1209.26 660.302 1237.96 674.75 1254.05 688.088 C 1235.67 706.274 1215.26 723.779 1197.24 741.81 C 1171.62 767.449 1159.06 772.719 1123.17 772.276 C 1084.7 771.801 1047.38 767.498 1015.4 793.538 C 974.845 755.321 930.055 783.32 887.833 767.782 C 859.874 757.493 818.957 708.262 791.151 690.556 C 808.431 678.795 822.881 670.597 841.158 660.386 z" fill="rgb(33,28,21)"/>
<path d="M 886.916 1130.08 C 918.783 1129.1 921.071 1162.55 895.114 1176.57 C 886.781 1181.07 874.691 1199.98 862.196 1205.76 C 860.631 1205.88 859.063 1205.97 857.494 1206.02 C 838.281 1206.5 835.53 1193.45 836.102 1177.95 C 841.566 1170.35 878.817 1134.13 886.916 1130.08 z" fill="rgb(247,232,196)"/>
<path d="M 944.128 1184.08 C 962.156 1183.43 970.791 1195.75 967.276 1211.57 C 965.821 1218.12 926.496 1253.33 920.724 1255.24 L 919.015 1255.86 C 900.367 1256.56 891.285 1243.49 896.368 1228.17 C 898.699 1221.15 936.506 1187.3 944.128 1184.08 z" fill="rgb(247,232,196)"/>
<path d="M 826.996 1083.02 C 843.331 1082.71 853.298 1090.94 851.834 1107.49 C 851.121 1115.56 813.467 1149.42 807.097 1153.53 C 789.215 1152.68 778.217 1145.81 781.863 1126.49 C 783.155 1119.64 820.727 1086.08 826.996 1083.02 z" fill="rgb(247,232,196)"/>
<path d="M 992.309 1241.99 C 994.503 1241.74 998.664 1241.29 1000.5 1242.06 C 1025.45 1252.44 1014.42 1272.21 998.888 1284.72 C 987.079 1294.23 984.537 1298.06 972.406 1304.83 C 959.881 1305.77 946.22 1298.59 950.059 1284.47 C 952.894 1274.04 982.628 1248.77 992.309 1241.99 z" fill="rgb(247,232,196)"/>
<path d="M 1048.55 1245.03 C 1047.96 1243.08 1045.97 1239.39 1046.37 1237.79 C 1046.76 1236.26 1050.34 1241.15 1050.29 1241.08 C 1059.26 1249.05 1067.62 1258.8 1075.69 1266.22 C 1086.45 1276.11 1099.51 1290.58 1085.97 1304.49 C 1068.03 1322.9 1049.6 1301.44 1039.95 1288.9 L 1040.78 1287.19 C 1048.45 1271.76 1052.42 1262.68 1048.55 1245.03 z" fill="rgb(247,232,196)"/>
<path d="M 561.842 828.541 C 566.818 826.184 572.762 828.292 575.142 833.256 C 577.522 838.221 575.441 844.175 570.487 846.577 C 565.502 848.994 559.501 846.897 557.106 841.901 C 554.712 836.905 556.835 830.914 561.842 828.541 z" fill="rgb(252,193,108)"/>
<path d="M 1513.33 1056.64 C 1516.44 1054.88 1520.25 1054.95 1523.29 1056.82 C 1526.33 1058.69 1528.12 1062.06 1527.95 1065.63 C 1527.78 1069.19 1525.69 1072.39 1522.49 1073.96 C 1517.73 1076.3 1511.98 1074.44 1509.5 1069.75 C 1507.02 1065.06 1508.72 1059.26 1513.33 1056.64 z" fill="rgb(252,193,108)"/>
<path d="M 1510.23 1103.32 C 1515.23 1101.41 1520.84 1103.87 1522.82 1108.84 C 1524.8 1113.82 1522.41 1119.46 1517.46 1121.5 C 1514.2 1122.84 1510.47 1122.33 1507.7 1120.16 C 1504.92 1117.99 1503.53 1114.49 1504.06 1111 C 1504.58 1107.52 1506.94 1104.59 1510.23 1103.32 z" fill="rgb(252,193,108)"/>
<path d="M 1508.61 918.115 C 1511.75 916.563 1515.49 916.839 1518.38 918.837 C 1521.26 920.835 1522.84 924.24 1522.49 927.731 C 1522.14 931.223 1519.93 934.251 1516.71 935.641 C 1511.9 937.716 1506.31 935.58 1504.11 930.826 C 1501.92 926.072 1503.91 920.433 1508.61 918.115 z" fill="rgb(252,193,108)"/>
<path d="M 606.172 1290.55 C 609.175 1288.81 612.879 1288.83 615.865 1290.6 C 618.85 1292.36 620.654 1295.6 620.584 1299.06 C 620.514 1302.53 618.582 1305.69 615.528 1307.33 C 610.903 1309.82 605.138 1308.14 602.582 1303.55 C 600.025 1298.96 601.624 1293.17 606.172 1290.55 z" fill="rgb(252,193,108)"/>
<path d="M 775.162 588.323 C 780.138 587.004 785.265 589.861 786.761 594.787 C 788.258 599.712 785.587 604.938 780.718 606.61 C 777.41 607.746 773.745 606.986 771.162 604.626 C 768.58 602.267 767.492 598.685 768.325 595.288 C 769.159 591.89 771.781 589.219 775.162 588.323 z" fill="rgb(252,193,108)"/>
<path d="M 644.941 695.738 C 649.652 693.42 655.35 695.354 657.677 700.061 C 660.004 704.767 658.081 710.469 653.379 712.805 C 648.664 715.147 642.943 713.218 640.61 708.499 C 638.277 703.779 640.217 698.062 644.941 695.738 z" fill="rgb(252,193,108)"/>
<path d="M 1120.59 531.228 C 1123.94 530.056 1127.67 530.854 1130.25 533.295 C 1132.83 535.736 1133.83 539.413 1132.85 542.827 C 1131.87 546.24 1129.06 548.82 1125.58 549.513 C 1120.68 550.488 1115.87 547.51 1114.56 542.696 C 1113.24 537.882 1115.88 532.873 1120.59 531.228 z" fill="rgb(252,193,108)"/>
<path d="M 532.47 925.584 C 537.149 923.464 542.665 925.459 544.906 930.082 C 547.147 934.704 545.295 940.27 540.732 942.63 C 537.674 944.212 533.997 944.01 531.13 942.102 C 528.263 940.194 526.657 936.881 526.936 933.448 C 527.214 930.016 529.333 927.005 532.47 925.584 z" fill="rgb(252,193,108)"/>
<path d="M 1072.39 1510.46 C 1077.35 1508.77 1082.73 1511.42 1084.42 1516.38 C 1086.1 1521.33 1083.44 1526.71 1078.48 1528.39 C 1073.53 1530.06 1068.17 1527.41 1066.49 1522.47 C 1064.81 1517.52 1067.45 1512.15 1072.39 1510.46 z" fill="rgb(252,193,108)"/>
<path d="M 1169.01 1489.5 C 1172.04 1487.93 1175.68 1488.11 1178.54 1489.98 C 1181.4 1491.84 1183.03 1495.1 1182.81 1498.5 C 1182.6 1501.91 1180.57 1504.93 1177.5 1506.42 C 1172.84 1508.68 1167.23 1506.78 1164.9 1502.15 C 1162.58 1497.52 1164.41 1491.88 1169.01 1489.5 z" fill="rgb(252,193,108)"/>
<path d="M 1515.36 964.449 C 1520.07 962.292 1525.64 964.315 1527.86 968.99 C 1530.08 973.666 1528.13 979.259 1523.49 981.544 C 1520.43 983.051 1516.79 982.793 1513.97 980.869 C 1511.15 978.945 1509.59 975.653 1509.88 972.253 C 1510.17 968.852 1512.26 965.87 1515.36 964.449 z" fill="rgb(252,193,108)"/>
<path d="M 1019.12 1513.67 C 1023.51 1510.92 1029.3 1512.23 1032.09 1516.59 C 1034.88 1520.96 1033.63 1526.76 1029.29 1529.59 C 1024.89 1532.45 1019 1531.18 1016.17 1526.76 C 1013.35 1522.34 1014.67 1516.46 1019.12 1513.67 z" fill="rgb(252,193,108)"/>
<path d="M 1412.02 1319.32 C 1415.35 1318.63 1418.8 1319.79 1421.04 1322.36 C 1423.28 1324.93 1423.95 1328.51 1422.8 1331.72 C 1421.66 1334.93 1418.87 1337.27 1415.51 1337.84 C 1410.45 1338.7 1405.62 1335.34 1404.67 1330.29 C 1403.72 1325.24 1406.99 1320.36 1412.02 1319.32 z" fill="rgb(252,193,108)"/>
<path d="M 1121.26 1502.66 C 1126.08 1500.67 1131.6 1502.98 1133.57 1507.81 C 1135.53 1512.64 1133.19 1518.15 1128.34 1520.09 C 1123.54 1522.01 1118.09 1519.69 1116.14 1514.89 C 1114.19 1510.1 1116.48 1504.63 1121.26 1502.66 z" fill="rgb(252,193,108)"/>
<path d="M 741.366 1425.4 C 744.488 1424.04 748.1 1424.48 750.804 1426.55 C 753.508 1428.62 754.88 1431.99 754.389 1435.36 C 753.898 1438.72 751.621 1441.56 748.439 1442.77 C 743.675 1444.58 738.336 1442.26 736.414 1437.54 C 734.492 1432.82 736.691 1427.43 741.366 1425.4 z" fill="rgb(252,193,108)"/>
<path d="M 523.42 1020.49 C 528.074 1018.36 533.578 1020.35 535.785 1024.97 C 537.992 1029.59 536.087 1035.13 531.505 1037.41 C 528.474 1038.92 524.865 1038.68 522.064 1036.78 C 519.262 1034.87 517.702 1031.61 517.983 1028.24 C 518.264 1024.86 520.343 1021.9 523.42 1020.49 z" fill="rgb(252,193,108)"/>
<path d="M 1377.13 1358.91 C 1390.23 1357.51 1396.47 1367.22 1386.61 1376.09 C 1382.27 1376.15 1377.77 1376.83 1374.29 1373.7 C 1372.82 1372.38 1371.94 1370.51 1371.85 1368.53 C 1371.67 1365 1373.42 1362.46 1375.91 1360.12 L 1377.13 1358.91 z" fill="rgb(252,193,108)"/>
<path d="M 1218.59 1471.16 C 1223.44 1469.67 1228.59 1472.31 1230.21 1477.11 C 1231.84 1481.92 1229.34 1487.14 1224.58 1488.89 C 1221.38 1490.06 1217.8 1489.41 1215.23 1487.18 C 1212.66 1484.96 1211.49 1481.51 1212.19 1478.18 C 1212.89 1474.85 1215.34 1472.17 1218.59 1471.16 z" fill="rgb(252,193,108)"/>
<path d="M 680.873 656.973 C 684.028 655.642 687.659 656.142 690.338 658.276 C 693.016 660.41 694.314 663.837 693.722 667.21 C 693.129 670.583 690.741 673.363 687.495 674.457 C 682.727 676.063 677.543 673.61 675.761 668.905 C 673.979 664.2 676.237 658.928 680.873 656.973 z" fill="rgb(252,193,108)"/>
<path d="M 1019.35 521.58 C 1022.57 520.576 1026.08 521.382 1028.54 523.69 C 1030.99 525.997 1032.02 529.448 1031.22 532.722 C 1030.42 535.996 1027.92 538.586 1024.67 539.499 C 1019.75 540.884 1014.63 538.061 1013.18 533.161 C 1011.72 528.262 1014.48 523.103 1019.35 521.58 z" fill="rgb(252,193,108)"/>
<path d="M 1264.96 586.568 C 1268.11 585.264 1271.73 585.782 1274.39 587.918 C 1277.05 590.055 1278.33 593.471 1277.74 596.832 C 1277.15 600.192 1274.77 602.964 1271.54 604.063 C 1266.76 605.688 1261.56 603.228 1259.78 598.503 C 1258 593.779 1260.29 588.497 1264.96 586.568 z" fill="rgb(252,193,108)"/>
<path d="M 1499.56 1150.4 C 1504.44 1148.77 1509.72 1151.39 1511.37 1156.27 C 1513.02 1161.14 1510.42 1166.43 1505.55 1168.1 C 1500.65 1169.77 1495.34 1167.15 1493.68 1162.25 C 1492.02 1157.36 1494.66 1152.05 1499.56 1150.4 z" fill="rgb(252,193,108)"/>
<path d="M 972.158 523.586 C 977.221 523.331 981.561 527.168 981.927 532.224 C 982.294 537.281 978.554 541.704 973.507 542.182 C 970.142 542.501 966.867 540.974 964.949 538.19 C 963.031 535.407 962.77 531.803 964.266 528.772 C 965.762 525.741 968.782 523.757 972.158 523.586 z" fill="rgb(252,193,108)"/>
<path d="M 526.683 1067.9 C 540.491 1068.64 545.307 1077.26 533.347 1085.2 C 518.715 1085.14 514.503 1074.83 526.683 1067.9 z" fill="rgb(252,193,108)"/>
<path d="M 1349.08 645.977 C 1363.12 645.511 1367.96 654.268 1355.97 663.512 C 1343.03 665.597 1338.96 654.895 1349.08 645.977 z" fill="rgb(252,193,108)"/>
<path d="M 823.955 562.629 C 829.064 561.909 833.784 565.479 834.482 570.59 C 835.18 575.701 831.59 580.406 826.476 581.083 C 821.393 581.755 816.722 578.191 816.028 573.111 C 815.334 568.03 818.878 563.344 823.955 562.629 z" fill="rgb(252,193,108)"/>
<path d="M 1483.25 828.152 C 1487.96 826.154 1493.4 828.33 1495.43 833.024 C 1497.46 837.717 1495.32 843.171 1490.64 845.237 C 1485.92 847.323 1480.39 845.16 1478.34 840.418 C 1476.29 835.676 1478.49 830.17 1483.25 828.152 z" fill="rgb(252,193,108)"/>
<path d="M 542.985 876.745 C 547.609 874.557 553.133 876.518 555.342 881.133 C 557.552 885.748 555.616 891.28 551.011 893.511 C 546.377 895.756 540.8 893.805 538.577 889.16 C 536.353 884.515 538.33 878.948 542.985 876.745 z" fill="rgb(252,193,108)"/>
<path d="M 636.111 1328.38 C 641.051 1327.15 646.065 1330.12 647.356 1335.04 C 648.647 1339.97 645.734 1345.02 640.823 1346.36 C 637.596 1347.25 634.142 1346.33 631.78 1343.96 C 629.418 1341.59 628.512 1338.13 629.408 1334.91 C 630.304 1331.69 632.864 1329.19 636.111 1328.38 z" fill="rgb(252,193,108)"/>
<path d="M 545.098 1161.37 C 550.079 1160.13 555.119 1163.16 556.354 1168.14 C 557.589 1173.13 554.55 1178.16 549.568 1179.4 C 544.591 1180.63 539.558 1177.59 538.325 1172.61 C 537.091 1167.64 540.123 1162.6 545.098 1161.37 z" fill="rgb(252,193,108)"/>
<path d="M 613.549 737.14 C 616.788 736.109 620.33 736.931 622.784 739.283 C 625.237 741.635 626.208 745.14 625.314 748.419 C 624.421 751.698 621.807 754.226 618.499 755.008 C 613.646 756.157 608.754 753.263 607.422 748.457 C 606.091 743.651 608.797 738.652 613.549 737.14 z" fill="rgb(252,193,108)"/>
<path d="M 583.337 1250.19 C 588.043 1248.21 593.458 1250.41 595.46 1255.1 C 597.463 1259.79 595.302 1265.22 590.623 1267.26 C 585.9 1269.31 580.41 1267.12 578.389 1262.39 C 576.368 1257.65 578.588 1252.18 583.337 1250.19 z" fill="rgb(252,193,108)"/>
<path d="M 1168.56 545.715 C 1173.04 543.294 1178.63 544.942 1181.08 549.404 C 1183.53 553.866 1181.92 559.471 1177.48 561.954 C 1172.99 564.462 1167.32 562.834 1164.84 558.328 C 1162.36 553.821 1164.03 548.16 1168.56 545.715 z" fill="rgb(252,193,108)"/>
<path d="M 726.805 618.919 C 740.771 618.412 746.863 626.971 735.079 636.6 C 724.6 637.826 716.647 628.005 726.805 618.919 z" fill="rgb(252,193,108)"/>
<path d="M 1517.92 1009.92 C 1531.51 1010.39 1536.64 1019.29 1524.34 1027.17 C 1511.47 1029 1506.46 1018.07 1517.92 1009.92 z" fill="rgb(252,193,108)"/>
<path d="M 524.851 972.825 C 538.906 972.148 544.525 980.801 532.485 989.933 C 518.922 990.886 515.065 982.551 524.851 972.825 z" fill="rgb(252,193,108)"/>
<path d="M 1265.7 1448.6 C 1268.99 1448.04 1272.33 1449.3 1274.43 1451.9 C 1276.53 1454.49 1277.07 1458.02 1275.84 1461.12 C 1274.61 1464.22 1271.79 1466.42 1268.48 1466.87 C 1263.49 1467.54 1258.88 1464.09 1258.12 1459.1 C 1257.36 1454.12 1260.73 1449.45 1265.7 1448.6 z" fill="rgb(252,193,108)"/>
<path d="M 1415.5 711.637 C 1420.29 710.082 1425.44 712.649 1427.08 717.407 C 1428.72 722.166 1426.25 727.362 1421.52 729.09 C 1418.39 730.235 1414.88 729.599 1412.34 727.426 C 1409.81 725.252 1408.65 721.88 1409.3 718.607 C 1409.96 715.333 1412.33 712.668 1415.5 711.637 z" fill="rgb(252,193,108)"/>
<path d="M 781.192 1449.58 C 786.123 1448.36 791.117 1451.35 792.366 1456.27 C 793.614 1461.2 790.647 1466.21 785.728 1467.48 C 780.777 1468.76 775.73 1465.77 774.473 1460.81 C 773.217 1455.85 776.23 1450.82 781.192 1449.58 z" fill="rgb(252,193,108)"/>
<path d="M 1483.68 1194.81 C 1495.98 1195.3 1503.89 1204.19 1492.33 1212.11 C 1479.2 1211.85 1472.22 1204.95 1483.68 1194.81 z" fill="rgb(252,193,108)"/>
<path d="M 562.256 1205.36 C 566.961 1203.89 571.988 1206.39 573.656 1211.03 C 575.323 1215.67 573.039 1220.79 568.476 1222.66 C 565.346 1223.94 561.769 1223.39 559.157 1221.25 C 556.546 1219.1 555.321 1215.7 555.968 1212.38 C 556.615 1209.06 559.029 1206.37 562.256 1205.36 z" fill="rgb(252,193,108)"/>
<path d="M 973.022 1510.32 C 976.306 1509.81 979.61 1511.11 981.662 1513.72 C 983.713 1516.34 984.194 1519.86 982.918 1522.93 C 981.642 1526 978.809 1528.14 975.508 1528.53 C 970.532 1529.11 966.002 1525.61 965.324 1520.64 C 964.646 1515.68 968.07 1511.08 973.022 1510.32 z" fill="rgb(252,193,108)"/>
<path d="M 1438.02 1281.42 C 1440.92 1279.8 1444.46 1279.87 1447.29 1281.6 C 1450.12 1283.34 1451.78 1286.47 1451.64 1289.78 C 1451.5 1293.1 1449.58 1296.08 1446.62 1297.57 C 1442.18 1299.8 1436.76 1298.08 1434.43 1293.7 C 1432.09 1289.31 1433.69 1283.86 1438.02 1281.42 z" fill="rgb(252,193,108)"/>
<path d="M 532.62 1115.42 C 535.745 1114.15 539.318 1114.7 541.911 1116.86 C 544.504 1119.02 545.692 1122.44 545.002 1125.74 C 544.311 1129.04 541.854 1131.7 538.612 1132.64 C 533.95 1133.99 529.044 1131.46 527.448 1126.87 C 525.853 1122.29 528.125 1117.26 532.62 1115.42 z" fill="rgb(252,193,108)"/>
<path d="M 918.853 532.75 C 921.812 531.296 925.326 531.555 928.04 533.428 C 930.754 535.3 932.244 538.493 931.935 541.776 C 931.627 545.059 929.568 547.918 926.553 549.252 C 922.018 551.258 916.712 549.268 914.616 544.774 C 912.519 540.281 914.403 534.936 918.853 532.75 z" fill="rgb(252,193,108)"/>
<path d="M 1219.44 561.795 C 1224.17 560.683 1228.95 563.492 1230.27 568.171 C 1231.6 572.851 1229.01 577.746 1224.4 579.285 C 1221.22 580.345 1217.72 579.573 1215.28 577.275 C 1212.84 574.978 1211.86 571.527 1212.73 568.292 C 1213.6 565.057 1216.18 562.561 1219.44 561.795 z" fill="rgb(252,193,108)"/>
<path d="M 587.769 781.198 C 592.704 780.49 597.289 783.889 598.047 788.816 C 598.805 793.744 595.454 798.363 590.535 799.172 C 587.307 799.703 584.043 798.459 581.987 795.915 C 579.931 793.371 579.399 789.919 580.595 786.874 C 581.792 783.83 584.531 781.662 587.769 781.198 z" fill="rgb(252,193,108)"/>
<path d="M 922.106 1502.11 C 926.895 1500.58 932.02 1503.22 933.546 1508.01 C 935.072 1512.8 932.42 1517.92 927.626 1519.44 C 922.843 1520.96 917.738 1518.31 916.216 1513.53 C 914.694 1508.75 917.329 1503.64 922.106 1502.11 z" fill="rgb(252,193,108)"/>
<path d="M 872.98 1490.19 C 876.091 1489.05 879.577 1489.7 882.069 1491.89 C 884.561 1494.07 885.661 1497.44 884.938 1500.67 C 884.214 1503.91 881.782 1506.49 878.597 1507.4 C 873.911 1508.75 869.002 1506.14 867.489 1501.51 C 865.976 1496.87 868.403 1491.87 872.98 1490.19 z" fill="rgb(252,193,108)"/>
<path d="M 1307.42 614.691 C 1311.89 612.469 1317.32 614.291 1319.55 618.761 C 1321.77 623.23 1319.96 628.659 1315.49 630.891 C 1311.02 633.127 1305.58 631.308 1303.35 626.831 C 1301.11 622.353 1302.94 616.916 1307.42 614.691 z" fill="rgb(252,193,108)"/>
<path d="M 870.947 544.895 C 882.318 546.894 886.308 555.037 877.281 563.12 L 876.044 564.27 C 862.518 563.545 861.261 551.503 869.595 545.849 L 870.947 544.895 z" fill="rgb(252,193,108)"/>
<path d="M 1303.52 1424.5 C 1306.6 1423.17 1310.17 1423.67 1312.78 1425.79 C 1315.38 1427.91 1316.59 1431.3 1315.92 1434.59 C 1315.25 1437.88 1312.8 1440.53 1309.57 1441.46 C 1305 1442.77 1300.19 1440.3 1298.59 1435.82 C 1296.99 1431.34 1299.15 1426.38 1303.52 1424.5 z" fill="rgb(252,193,108)"/>
<path d="M 826.955 1472.37 C 830.033 1471.29 833.458 1471.95 835.911 1474.1 C 838.363 1476.26 839.459 1479.57 838.778 1482.76 C 838.097 1485.95 835.744 1488.53 832.625 1489.5 C 827.931 1490.95 822.936 1488.38 821.391 1483.71 C 819.846 1479.05 822.32 1474.01 826.955 1472.37 z" fill="rgb(252,193,108)"/>
<path d="M 667.631 1363.29 C 670.615 1362.01 674.058 1362.43 676.639 1364.4 C 679.221 1366.37 680.54 1369.58 680.09 1372.8 C 679.641 1376.01 677.492 1378.74 674.47 1379.93 C 669.897 1381.72 664.73 1379.52 662.863 1374.97 C 660.995 1370.43 663.118 1365.23 667.631 1363.29 z" fill="rgb(252,193,108)"/>
<path d="M 1344.06 1392.45 C 1348.82 1391.34 1353.6 1394.24 1354.81 1398.98 C 1356.01 1403.72 1353.2 1408.55 1348.49 1409.85 C 1345.36 1410.71 1342 1409.81 1339.72 1407.5 C 1337.44 1405.19 1336.58 1401.83 1337.48 1398.71 C 1338.38 1395.59 1340.9 1393.2 1344.06 1392.45 z" fill="rgb(252,193,108)"/>
<path d="M 1499.73 872.56 C 1504.45 871.381 1509.24 874.173 1510.55 878.857 C 1511.85 883.54 1509.19 888.41 1504.54 889.838 C 1501.42 890.796 1498.03 889.986 1495.68 887.723 C 1493.33 885.46 1492.4 882.1 1493.24 878.948 C 1494.08 875.797 1496.57 873.35 1499.73 872.56 z" fill="rgb(252,193,108)"/>
<path d="M 1462.66 1239.71 C 1465.55 1238.18 1469.06 1238.35 1471.79 1240.16 C 1474.53 1241.97 1476.05 1245.13 1475.77 1248.4 C 1475.48 1251.67 1473.43 1254.52 1470.42 1255.82 C 1466.01 1257.74 1460.88 1255.83 1458.79 1251.5 C 1456.7 1247.17 1458.41 1241.97 1462.66 1239.71 z" fill="rgb(252,193,108)"/>
<path d="M 1388.13 681.63 C 1391.21 680.497 1394.65 681.142 1397.11 683.309 C 1399.56 685.476 1400.63 688.815 1399.88 692.004 C 1399.14 695.193 1396.71 697.717 1393.55 698.576 C 1388.95 699.827 1384.18 697.235 1382.73 692.695 C 1381.28 688.156 1383.66 683.278 1388.13 681.63 z" fill="rgb(252,193,108)"/>
<path d="M 1442.06 746.963 C 1453.9 747.205 1460.8 756.619 1450.37 762.618 L 1448.73 763.601 C 1436.38 763.382 1430.86 754.426 1442.06 746.963 z" fill="rgb(252,193,108)"/>
<path d="M 1070.67 523.572 C 1075.34 522.233 1080.21 524.926 1081.56 529.593 C 1082.91 534.26 1080.23 539.139 1075.56 540.5 C 1070.88 541.866 1065.99 539.173 1064.63 534.49 C 1063.28 529.807 1065.98 524.915 1070.67 523.572 z" fill="rgb(252,193,108)"/>
<path d="M 1466.65 786.329 C 1471.27 785.453 1475.76 788.408 1476.78 793.003 C 1477.8 797.598 1474.98 802.171 1470.42 803.333 C 1467.34 804.117 1464.08 803.162 1461.91 800.842 C 1459.74 798.522 1459 795.205 1459.99 792.184 C 1460.98 789.164 1463.53 786.92 1466.65 786.329 z" fill="rgb(252,193,108)"/>
<path d="M 703.13 1396.37 C 707.519 1394.8 712.351 1397.04 713.999 1401.4 C 715.647 1405.76 713.505 1410.63 709.181 1412.37 C 706.307 1413.52 703.034 1413.03 700.624 1411.08 C 698.214 1409.14 697.044 1406.04 697.563 1402.99 C 698.083 1399.94 700.212 1397.4 703.13 1396.37 z" fill="rgb(252,193,108)"/>
</svg>
