<svg xmlns="http://www.w3.org/2000/svg" viewBox="80 245 1890 600">
<path d="M 922.192 644.327 C 910.601 622.56 922.653 603.104 932.301 582.948 C 949.474 547.069 965.303 509.368 984.821 474.679 C 990.792 464.069 1012.53 456.298 1024.25 460.577 C 1064.27 477.461 1105.05 497.071 1144.52 515.207 C 1190.36 536.274 1168.02 572.944 1153.47 606.125 L 1129.74 660.911 C 1128.29 664.226 1119.69 682.26 1119.32 684.802 L 1181.54 685.011 C 1182.62 655.154 1180.91 623.348 1181.09 593.349 C 1181.95 578.159 1178.86 560.127 1182.5 545.327 C 1189.88 515.313 1213.66 511.209 1238.87 511.135 L 1313.05 511.105 C 1340.4 511.14 1373.12 506.303 1387.14 536.036 C 1394.33 551.28 1392.16 579.683 1392.13 596.799 L 1391.95 685.007 L 1609.57 684.94 C 1596.38 661.78 1589.47 641.354 1586.21 614.786 C 1584.78 603.136 1582.19 585.152 1589.98 575.659 C 1603.42 559.27 1640.23 553.763 1659.88 552.114 C 1702.41 548.549 1783.55 546.379 1817.1 573.791 C 1823.56 582.45 1824.46 586.13 1823.82 596.872 L 1824.56 597.461 C 1840.63 598.061 1861.94 599.601 1872.31 612.871 C 1898.3 646.123 1871.65 672.385 1841.08 682.528 C 1845.2 684.997 1880.43 683.455 1890.35 684.801 C 1907.5 685.614 1929.35 684.815 1947.14 685.167 C 1944.19 711.59 1936.02 736.135 1920.37 757.85 C 1896.15 791.116 1859.87 813.581 1819.3 820.436 C 1797.41 823.919 1764.18 822.97 1741.24 822.985 L 1624.42 823.021 L 1208.83 822.999 L 560.943 823.04 L 352.187 823.065 C 321.348 823.06 271.202 824.539 241.771 822.318 C 213.035 819.926 185.478 809.814 162.015 793.05 C 124.422 765.714 106.689 729.683 99.6536 684.949 L 258.862 684.902 C 257.397 644.629 259.078 601.75 258.606 561.277 C 258.438 546.857 261.758 534.283 272.618 524.049 C 278.952 518.078 286.824 513.991 295.352 512.246 C 301.293 511.031 308.209 510.956 314.299 511.033 C 350.591 511.495 386.827 511.677 423.113 511.104 C 432.043 510.963 444.737 514.004 451.101 520.722 C 459.502 525.589 465.483 535.892 468.025 545.044 C 471.496 557.543 471.306 668.103 469.654 684.895 C 473.657 684.839 475.377 685.509 478.319 683.634 C 479.658 676.371 479.033 662.128 478.979 654.169 L 478.779 591.615 C 478.763 567.512 474.687 535.391 497.318 519.845 C 503.234 515.808 509.988 513.162 517.072 512.106 C 530.624 510.194 636.696 509.512 649.919 511.93 C 661.748 514.092 673.068 522.531 679.556 532.513 C 683.367 538.377 685.027 546.157 685.763 553.011 C 687.138 565.824 686.253 579.496 686.197 592.387 L 685.833 661.034 C 685.795 665.592 685.207 682.079 686.522 684.924 C 688.116 684.83 694.236 684.831 694.481 683.209 C 695.384 677.248 695.003 666.698 694.965 660.972 L 694.763 587.81 C 694.748 574.964 693.568 556.11 696.145 544.162 C 700.397 524.44 722.023 510.986 741.347 511.398 C 767.191 511.949 792.041 511.046 817.722 511.384 C 835.614 511.62 853.341 510.431 871.028 512.533 C 912.039 521.967 905.851 569.233 905.898 598.999 L 905.914 684.85 C 934.352 685.031 962.791 685.016 991.229 684.803 C 977.753 678.74 941.247 663.305 930.869 654.644 C 926.932 651.865 924.458 648.475 922.192 644.327 z" fill="#C9932F"/>
<path d="M 922.192 644.327 C 910.601 622.56 922.653 603.104 932.301 582.948 C 949.474 547.069 965.303 509.368 984.821 474.679 C 990.792 464.069 1012.53 456.298 1024.25 460.577 C 1064.27 477.461 1105.05 497.071 1144.52 515.207 C 1190.36 536.274 1168.02 572.944 1153.47 606.125 L 1129.74 660.911 C 1128.29 664.226 1119.69 682.26 1119.32 684.802 L 1117.65 686.819 C 1096.25 757.587 1035.64 699.203 999.147 688.997 C 978.803 683.308 930.116 688.237 905.729 686.61 C 903.436 694.227 902.045 697.839 898.291 704.967 L 896.652 707.373 L 895.518 708.883 L 888.816 715.625 L 887.749 716.471 C 881.913 720.028 870.927 725.28 863.802 725.419 C 822.4 726.229 780.782 725.789 739.35 725.533 C 725.734 725.449 714.381 720.147 705.384 709.984 L 703.743 708.001 C 697.07 699.371 699.298 695.634 694.147 687.096 C 693.187 685.504 688.892 685.838 686.616 685.739 L 686.522 684.924 C 688.116 684.83 694.236 684.831 694.481 683.209 C 695.384 677.248 695.003 666.698 694.965 660.972 L 694.763 587.81 C 694.748 574.964 693.568 556.11 696.145 544.162 C 700.397 524.44 722.023 510.986 741.347 511.398 C 767.191 511.949 792.041 511.046 817.722 511.384 C 835.614 511.62 853.341 510.431 871.028 512.533 C 912.039 521.967 905.851 569.233 905.898 598.999 L 905.914 684.85 C 934.352 685.031 962.791 685.016 991.229 684.803 C 977.753 678.74 941.247 663.305 930.869 654.644 C 926.932 651.865 924.458 648.475 922.192 644.327 z" fill="rgb(65,125,75)"/>
<path d="M 922.192 644.327 C 923.573 635.634 917.673 626.825 920.057 619.298 C 924.468 605.366 931.154 591.462 937.371 578.216 C 947.984 555.544 958.809 532.971 969.843 510.5 C 974.54 500.79 979.866 487.856 984.286 479.587 C 989.927 469.127 1012.08 458.658 1023.3 462.895 C 1052.56 473.944 1080.71 489.848 1109.49 502.533 C 1140.06 516.012 1182.99 528.019 1164.55 571.96 C 1145.61 614.873 1130.87 657.397 1108.73 699.038 C 1088.22 737.6 1055.92 708.998 1030.9 700.642 C 1013.11 694.7 942.817 655.595 930.869 654.644 C 926.932 651.865 924.458 648.475 922.192 644.327 z" fill="rgb(33,28,21)"/>
<path d="M 903.868 570.519 L 903.929 644.507 C 903.939 652.245 903.758 661.842 903.948 669.391 C 905.673 738.038 846.463 721.869 800.692 723.508 C 789.641 723.903 779.449 723.566 768.627 723.708 C 756.682 723.864 745.102 724.279 733.31 722.899 C 713.204 720.242 697.797 703.599 697.259 683.496 C 696.524 656.024 697.046 629.771 696.855 602.385 C 697.71 584.75 695.404 564.744 697.768 547.366 C 701.786 527.739 719.63 513.678 739.588 513.433 C 763.724 512.815 787.867 513.085 812.024 513.037 C 828.421 513.005 844.956 512.739 861.339 513.631 C 886.36 514.992 902.033 532.145 903.15 557.442 C 904.525 563.383 904.283 564.401 903.868 570.519 z" fill="rgb(247,232,196)"/>
<path d="M 903.15 557.442 C 904.525 563.383 904.283 564.401 903.868 570.519 C 903.09 565.004 903.055 562.982 903.15 557.442 z" fill="rgb(148,138,134)"/>
<path d="M 1181.54 685.011 C 1182.62 655.154 1180.91 623.348 1181.09 593.349 C 1181.95 578.159 1178.86 560.127 1182.5 545.327 C 1189.88 515.313 1213.66 511.209 1238.87 511.135 L 1313.05 511.105 C 1340.4 511.14 1373.12 506.303 1387.14 536.036 C 1394.33 551.28 1392.16 579.683 1392.13 596.799 L 1391.95 685.007 L 1609.57 684.94 C 1596.38 661.78 1589.47 641.354 1586.21 614.786 C 1584.78 603.136 1582.19 585.152 1589.98 575.659 C 1603.42 559.27 1640.23 553.763 1659.88 552.114 C 1702.41 548.549 1783.55 546.379 1817.1 573.791 C 1823.56 582.45 1824.46 586.13 1823.82 596.872 L 1824.56 597.461 L 1824.47 598.38 L 1824 599.764 L 1821.6 599.756 C 1822.57 638.691 1805 676.881 1779.2 705.431 L 1780.15 707.564 C 1793.49 709.904 1842.72 712.494 1844.18 728.526 C 1833.71 756.87 1677.82 754.128 1653.88 733.021 C 1648.95 728.678 1651.2 727.872 1649.27 723.586 C 1647.03 722.632 1642.53 719.799 1640.27 718.441 L 1639.11 717.526 L 1635.13 714.267 L 1633.17 712.657 C 1623.77 703.705 1618.42 697.637 1610.9 687.099 L 1392 687.021 C 1381.09 725.28 1358.17 726.804 1323.41 726.063 C 1290.59 725.363 1256.98 727.148 1224.15 725.112 C 1199.9 723.608 1187.68 709.764 1181.91 687.075 L 1181.54 685.011 z" fill="rgb(33,28,21)"/>
<path d="M 1587.44 600.313 C 1593.46 605.088 1601.41 610.075 1608.71 612.619 C 1657.47 629.632 1782.64 634.883 1821.6 599.756 C 1822.57 638.691 1805 676.881 1779.2 705.431 C 1740.3 741.017 1697.77 748.245 1650.43 723.068 C 1642.06 716.404 1639.05 715.358 1630.31 706.955 C 1602.44 680.15 1588.05 638.492 1587.44 600.313 z" fill="rgb(247,232,196)"/>
<path d="M 1191.19 530.931 C 1198.36 522.209 1209.15 513.846 1220.87 513.399 C 1243.42 512.587 1266.38 512.532 1288.96 512.791 C 1311.22 513.046 1334.54 511.582 1356.54 514.39 C 1373.85 516.6 1389.73 536.71 1390.13 553.761 C 1391.77 564.879 1391.81 633.742 1390.15 644.519 C 1390.04 661.203 1393.25 682.995 1386.2 698.446 C 1381.47 708.818 1371.97 717.2 1361.28 721.027 C 1347.91 725.818 1242.3 725.045 1223.45 723.171 C 1217.98 722.628 1213.02 721.61 1208.05 719.213 C 1198.59 714.655 1190.15 705.963 1186.72 695.948 C 1185.08 691.156 1184.25 686.076 1183.87 681.036 C 1182.15 657.825 1183.21 633.824 1183.07 610.502 C 1182.96 591.52 1181.4 571.418 1183.26 552.589 C 1183.92 546.013 1185.54 540.81 1188.4 534.873 L 1189.72 533.273 L 1191.19 530.931 z" fill="#417D4B"/>
<path d="M 1675.41 552.905 C 1681.59 551.217 1681.69 551.332 1688.23 552.018 C 1723.55 552.125 1787.83 551.126 1815.32 575.168 C 1820.55 581.771 1821.39 583.713 1822.47 592.038 L 1820.34 592.523 C 1784.09 560.711 1622.86 561.18 1588.21 592.976 C 1585.32 588.252 1587.7 579.739 1591.56 576.273 C 1612.06 557.863 1649.58 554.64 1675.41 552.905 z" fill="rgb(247,232,196)"/>
<path d="M 1675.41 552.905 C 1681.59 551.217 1681.69 551.332 1688.23 552.018 C 1682.78 553.028 1680.94 552.97 1675.41 552.905 z" fill="rgb(146,136,117)"/>
<path d="M 469.654 684.895 C 473.657 684.839 475.377 685.509 478.319 683.634 C 479.658 676.371 479.033 662.128 478.979 654.169 L 478.779 591.615 C 478.763 567.512 474.687 535.391 497.318 519.845 C 503.234 515.808 509.988 513.162 517.072 512.106 C 530.624 510.194 636.696 509.512 649.919 511.93 C 661.748 514.092 673.068 522.531 679.556 532.513 C 683.367 538.377 685.027 546.157 685.763 553.011 C 687.138 565.824 686.253 579.496 686.197 592.387 L 685.833 661.034 C 685.795 665.592 685.207 682.079 686.522 684.924 L 686.616 685.739 C 686.393 686.016 686.171 686.292 685.949 686.568 C 678.438 706.369 673.134 721.352 648.817 724.488 C 626.57 726.853 603.368 725.878 580.947 725.992 C 560.353 725.605 539.443 726.914 518.944 725.063 C 499.52 723.309 486.79 712.187 480.601 693.945 C 479.611 691.024 479.046 684.35 474.02 686.778 C 467.03 690.154 464.898 700.987 460.137 707.963 L 458.908 709.391 L 454.284 714.094 C 452.512 715.299 452.172 715.416 450.976 717.286 C 450.256 717.624 448.767 718.217 448.292 718.716 L 444.326 720.401 L 443.532 719.103 C 457.186 711.193 463.277 702.296 467.828 687.348 L 469.654 684.895 z" fill="rgb(33,28,21)"/>
<path d="M 443.532 719.103 C 416.849 729.637 349.258 719.638 318.074 723.795 C 298.368 726.421 263.978 714.439 262.322 691.348 C 259.027 645.394 261.254 596.363 261.392 550.068 C 261.926 522.801 296.04 510.073 318.939 513.041 C 352.029 517.33 421.922 504.556 449.068 521.264 L 451.101 520.722 C 459.502 525.589 465.483 535.892 468.025 545.044 C 471.496 557.543 471.306 668.103 469.654 684.895 L 467.828 687.348 C 463.277 702.296 457.186 711.193 443.532 719.103 z" fill="rgb(247,232,196)"/>
<path d="M 451.101 520.722 C 459.502 525.589 465.483 535.892 468.025 545.044 C 471.496 557.543 471.306 668.103 469.654 684.895 L 467.828 687.348 C 469.59 645.043 467.351 600.439 467.678 557.947 C 467.757 547.725 463.19 537.284 457.444 528.996 C 455.254 525.162 453.422 525.793 451.101 520.722 z" fill="rgb(65,125,75)"/>
<path d="M 451.101 520.722 C 453.422 525.793 455.254 525.162 457.444 528.996 C 455.835 528.161 450.911 522.97 449.068 521.264 L 451.101 520.722 z" fill="rgb(146,136,117)"/>
<path d="M 258.862 684.902 C 257.397 644.629 259.078 601.75 258.606 561.277 C 258.438 546.857 261.758 534.283 272.618 524.049 C 278.952 518.078 286.824 513.991 295.352 512.246 C 301.293 511.031 308.209 510.956 314.299 511.033 C 350.591 511.495 386.827 511.677 423.113 511.104 C 432.043 510.963 444.737 514.004 451.101 520.722 L 449.068 521.264 C 421.922 504.556 352.029 517.33 318.939 513.041 C 296.04 510.073 261.926 522.801 261.392 550.068 C 261.254 596.363 259.027 645.394 262.322 691.348 C 263.978 714.439 298.368 726.421 318.074 723.795 C 349.258 719.638 416.849 729.637 443.532 719.103 L 444.326 720.401 C 428.274 729.15 390.789 724.767 371.491 725.708 C 350.645 726.725 326.639 725.513 305.495 725.721 C 282.329 725.948 263.43 710.443 259.107 687.106 C 207.102 687.076 154.189 687.557 102.25 686.982 C 105.641 707.841 112.038 732.57 124.512 750.055 L 125.353 751.318 L 129.581 757.031 L 131.36 759.523 L 133.512 761.795 C 133.771 762.19 134.881 763.968 135.132 764.153 L 138.579 768.073 C 139.554 769.342 140.888 771.363 142.216 772.113 C 146.298 776.553 149.235 779.809 153.874 783.759 L 155.416 785.151 L 159.85 788.762 L 161.026 789.679 C 181.467 806.196 217.608 819.654 243.972 820.006 C 251.645 821.042 256.436 820.893 264.158 820.775 C 288.662 820.775 315.878 821.356 340.16 820.726 C 365.227 820.942 390.295 820.993 415.363 820.878 C 428.94 820.87 446.721 821.376 460.016 820.733 C 482.842 820.845 505.67 820.841 528.497 820.719 L 1050.61 820.851 L 1263.85 820.875 C 1298.95 820.887 1339.89 821.918 1374.66 820.737 C 1467.71 822.276 1564.9 820.811 1658.29 820.828 L 1750.39 820.829 C 1803.06 820.81 1840.79 822.948 1885.68 790.056 L 1887.36 788.569 L 1889.64 786.872 L 1891.12 785.659 L 1894.15 783.323 C 1900.21 778.402 1905.75 772.868 1910.67 766.81 L 1913.52 763.284 L 1914.43 762.141 C 1934.8 735.31 1938.59 719.364 1945.4 686.987 L 1869.13 686.913 C 1860.6 686.914 1837.34 687.476 1830.69 686.485 L 1827.46 686.281 C 1820.33 685.82 1816.99 686.207 1809.98 686.946 C 1805.82 686.856 1800.14 686.31 1796.52 687.912 L 1794.42 690.348 L 1793.44 691.891 C 1789.91 696.055 1783.2 703.443 1780.15 707.564 L 1779.2 705.431 C 1805 676.881 1822.57 638.691 1821.6 599.756 L 1824 599.764 L 1824.47 598.38 L 1824.56 597.461 C 1840.63 598.061 1861.94 599.601 1872.31 612.871 C 1898.3 646.123 1871.65 672.385 1841.08 682.528 C 1845.2 684.997 1880.43 683.455 1890.35 684.801 C 1907.5 685.614 1929.35 684.815 1947.14 685.167 C 1944.19 711.59 1936.02 736.135 1920.37 757.85 C 1896.15 791.116 1859.87 813.581 1819.3 820.436 C 1797.41 823.919 1764.18 822.97 1741.24 822.985 L 1624.42 823.021 L 1208.83 822.999 L 560.943 823.04 L 352.187 823.065 C 321.348 823.06 271.202 824.539 241.771 822.318 C 213.035 819.926 185.478 809.814 162.015 793.05 C 124.422 765.714 106.689 729.683 99.6536 684.949 L 258.862 684.902 z" fill="#97671C"/>
<path d="M 1824.47 598.38 C 1829.94 598.602 1830.99 598.468 1836.29 599.925 C 1852.03 601.348 1859.18 603.406 1870.78 614.008 C 1871.87 614.817 1871.77 614.802 1872.4 616.039 C 1893.51 647.156 1868.96 674.412 1837.26 681.438 L 1830.09 683.428 C 1818.43 685.121 1810.17 684.884 1798.46 684.807 C 1801.15 679.677 1805.25 669.478 1809.92 667.975 C 1812.67 667.224 1812.84 666.869 1815.63 667.293 C 1852.41 667.002 1889.18 625.42 1822.96 617.018 C 1823.01 610.86 1823.45 605.863 1824 599.764 L 1824.47 598.38 z" fill="rgb(247,232,196)"/>
<path d="M 1824.47 598.38 C 1829.94 598.602 1830.99 598.468 1836.29 599.925 C 1832.2 599.953 1828.1 599.9 1824 599.764 L 1824.47 598.38 z" fill="rgb(146,136,117)"/>
<path d="M 1809.92 667.975 C 1812.67 667.224 1812.84 666.869 1815.63 667.293 C 1813.86 668.248 1811.88 667.952 1809.92 667.975 z" fill="rgb(146,136,117)"/>
<path d="M 1870.78 614.008 C 1871.87 614.817 1871.77 614.802 1872.4 616.039 C 1871.23 615.331 1871.39 615.342 1870.78 614.008 z" fill="rgb(146,136,117)"/>
<path d="M 1841.08 682.528 C 1845.2 684.997 1880.43 683.455 1890.35 684.801 C 1885.46 684.94 1836.79 685.135 1835.82 684.42 C 1836.33 684.035 1836.77 683.913 1837.4 683.645 C 1838.71 683.203 1839.73 682.874 1841.08 682.528 z" fill="rgb(247,232,196)"/>
<path d="M 1822.48 619.677 C 1827.77 620.03 1833.05 620.114 1838.18 621.492 C 1868.14 629.542 1859.57 648.404 1838.42 659.599 C 1826.7 664.422 1820.75 665.226 1808.25 666.505 C 1815.16 651.739 1820 635.796 1822.48 619.677 z" fill="rgb(247,232,196)"/>
<path d="M 1119.32 684.802 L 1181.54 685.011 L 1181.91 687.075 L 1117.65 686.819 L 1119.32 684.802 z" fill="rgb(98,55,19)"/>
<path d="M 1600.64 729.722 C 1589.79 741.374 1554.73 740.978 1546.77 731.218 C 1533.93 715.477 1572.92 710.613 1580.99 713.109 C 1591.72 716.427 1603.72 715.893 1601.54 729.093 L 1600.64 729.722 z" fill="rgb(33,28,21)"/>
<path d="M 1648.63 765.167 C 1641.76 776.06 1624.76 774.83 1613.78 772.291 C 1602.49 769.68 1599.34 761.72 1610.63 756.388 C 1619.72 752.097 1633.08 753.169 1642.17 756.68 C 1645.96 757.598 1649.74 760.915 1648.63 765.167 z" fill="rgb(33,28,21)"/>
<path d="M 1724.45 264.74 C 1731.27 265.008 1744.5 280.923 1749.06 286.068 C 1793.02 335.576 1803.85 419.591 1755.36 469.859 C 1738.49 487.348 1735.77 506.29 1733.64 529.229 C 1728.93 524.829 1736.56 497.12 1739.25 490.907 C 1747.77 471.198 1764.06 460.448 1773.12 440.796 C 1793.47 396.613 1786.59 344.507 1760.18 304.381 C 1749.68 288.26 1738.58 277.899 1724.45 264.74 z" fill="#211C15"/>
<path d="M 1713.91 299.508 C 1752.84 334.635 1762.44 420.107 1725.92 460.439 C 1711.98 475.843 1702.21 489.169 1698.25 510.134 C 1697.71 512.853 1696.74 526.951 1695.99 528.007 C 1694.55 526.677 1694.78 526.229 1694.77 524.296 C 1694.69 509.437 1701.34 484.406 1712.5 473.547 C 1758.1 429.165 1758.54 352.59 1713.93 302.174 L 1713.91 299.508 z" fill="#211C15"/>
<path d="M 1672.83 309.099 L 1673.35 309.601 C 1696.41 333.458 1709.14 365.446 1708.77 398.624 C 1708.45 418.323 1701.79 443.238 1689.19 458.572 C 1679.98 469.769 1674.43 475.4 1666.79 488.491 C 1658.78 502.222 1661.44 517.526 1657.14 528.971 C 1656.22 526.258 1655.14 523.936 1656.79 521.3 C 1656.57 508.108 1664.22 485.091 1672.7 475.252 C 1691.98 452.893 1703.8 436.175 1706.29 405.61 C 1706.13 403.546 1705.92 403.217 1706.76 401.365 L 1706.76 390.772 C 1705.88 388.857 1706.05 388.57 1706.27 386.4 C 1705.93 360.333 1690.08 331.095 1672.87 312.022 L 1669.96 308.929 L 1672.83 309.099 z" fill="#211C15"/>
<path d="M 1657.14 528.971 C 1656.22 526.258 1655.14 523.936 1656.79 521.3 C 1657.38 524.295 1657.15 525.998 1657.14 528.971 z" fill="rgb(148,138,134)"/>
<path d="M 1706.27 386.4 C 1707.44 388.157 1707.17 388.603 1706.76 390.772 C 1705.88 388.857 1706.05 388.57 1706.27 386.4 z" fill="rgb(148,138,134)"/>
<path d="M 1706.76 401.365 C 1707.17 403.468 1707.47 403.852 1706.29 405.61 C 1706.13 403.546 1705.92 403.217 1706.76 401.365 z" fill="rgb(148,138,134)"/>
<path d="M 1697.85 285.707 C 1698.07 285.874 1686.71 276.614 1694.6 280.769 C 1699.28 283.235 1711.54 294.996 1713.91 299.508 L 1713.93 302.174 L 1710.81 298.541 C 1707.54 294.461 1703.9 290.696 1699.93 287.296 C 1698.73 286.653 1698.69 286.727 1697.85 285.707 z" fill="rgb(33,28,21)"/>
<path d="M 1710.81 298.541 L 1713.91 299.508 L 1713.93 302.174 L 1710.81 298.541 z" fill="rgb(148,138,134)"/>
<path d="M 1697.85 285.707 C 1699.31 286.306 1699.18 286.099 1699.93 287.296 C 1698.73 286.653 1698.69 286.727 1697.85 285.707 z" fill="rgb(148,138,134)"/>
<path d="M 1663.35 300.862 C 1667.32 303.657 1669.44 305.611 1672.83 309.099 L 1669.96 308.929 C 1668.45 307.399 1667.57 306.683 1665.82 305.385 C 1665.01 303.87 1664.19 302.362 1663.35 300.862 z" fill="rgb(33,28,21)"/>
<path d="M 1665.82 305.385 C 1658.69 299.718 1660.76 297.365 1663.35 300.862 C 1664.19 302.362 1665.01 303.87 1665.82 305.385 z" fill="rgb(148,138,134)"/>
</svg>
