<svg xmlns="http://www.w3.org/2000/svg" width="1200" height="630" viewBox="0 0 1200 630" role="img" aria-labelledby="title description">
  <title id="title">FJALË 36</title>
  <desc id="description">Pesë shkronja. Të 36-at vlejnë. Loja shqipe e fjalës së ditës.</desc>

  <rect width="1200" height="630" fill="#FCFAF5" />

  <g font-family="-apple-system, BlinkMacSystemFont, 'Segoe UI', Arial, sans-serif">
    <rect x="72" y="64" width="72" height="72" rx="12" fill="#cc8800" />
    <text x="108" y="117" fill="#ffffff" font-size="47" font-weight="850" text-anchor="middle">Ë</text>
    <text x="166" y="116" fill="#302c28" font-size="51" font-weight="850" letter-spacing="-1">FJALË</text>
    <text x="351" y="115" fill="#7a7168" font-size="22" font-weight="700">36</text>

    <text x="72" y="258" fill="#302c28" font-size="64" font-weight="820" letter-spacing="-1.4">Pesë shkronja.</text>
    <text x="72" y="335" fill="#302c28" font-size="64" font-weight="820" letter-spacing="-1.4">
      Të <tspan fill="#b87500">36-at</tspan> vlejnë.
    </text>
    <text x="74" y="397" fill="#655e57" font-size="27" font-weight="500">Loja shqipe e fjalës së ditës.</text>
    <text x="74" y="437" fill="#655e57" font-size="27" font-weight="500">Pa llogari. Pa zhurmë. Vetëm pesë minuta.</text>

    <line x1="704" y1="64" x2="704" y2="566" stroke="#dedbd7" stroke-width="2" />

    <g transform="translate(758 138)">
      <g fill="#ffffff" stroke="#4c4742" stroke-width="3">
        <rect x="0" y="0" width="68" height="68" rx="9" />
        <rect x="80" y="0" width="68" height="68" rx="9" />
        <rect x="160" y="0" width="68" height="68" rx="9" />
        <rect x="240" y="0" width="68" height="68" rx="9" />
      </g>
      <rect x="320" y="0" width="68" height="68" rx="9" fill="#cc8800" />
      <g fill="#302c28" font-size="34" font-weight="850" text-anchor="middle">
        <text x="34" y="45">F</text>
        <text x="114" y="45">J</text>
        <text x="194" y="45">A</text>
        <text x="274" y="45">L</text>
      </g>
      <text x="354" y="45" fill="#ffffff" font-size="34" font-weight="850" text-anchor="middle">Ë</text>

      <text x="0" y="128" fill="#302c28" font-size="25" font-weight="760">Dyshkronjëshat</text>
      <text x="0" y="162" fill="#302c28" font-size="25" font-weight="760">janë shkronja më vete.</text>

      <g transform="translate(0 192)">
        <g fill="#f1f0ee">
          <rect x="0" y="0" width="82" height="64" rx="9" />
          <rect x="94" y="0" width="82" height="64" rx="9" />
          <rect x="188" y="0" width="82" height="64" rx="9" />
          <rect x="282" y="0" width="82" height="64" rx="9" />
        </g>
        <g fill="#302c28" font-size="26" font-weight="820" text-anchor="middle">
          <text x="41" y="41">SH</text>
          <text x="135" y="41">RR</text>
          <text x="229" y="41">GJ</text>
          <text x="323" y="41">XH</text>
        </g>
      </g>

      <rect x="0" y="295" width="186" height="46" rx="23" fill="#302c28" />
      <text x="93" y="326" fill="#ffffff" font-size="20" font-weight="760" text-anchor="middle">SH = 1 shkronjë</text>
    </g>

    <line x1="72" y1="534" x2="1128" y2="534" stroke="#dedbd7" stroke-width="2" />
    <text x="72" y="575" fill="#7a7168" font-size="21" font-weight="650">fjale-self.vercel.app</text>
    <text x="1128" y="575" fill="#7a7168" font-size="21" font-weight="650" text-anchor="end">Luaj sot</text>
  </g>
  <svg x="1000" y="400" width="121" height="128" viewBox="975 40 1045 1108" preserveAspectRatio="xMidYMax meet" aria-hidden="true">
    <path d="M 1695.84 50.2199 C 1736.74 49.5809 1777.75 50.1754 1818.72 50.0159 C 1840.82 49.9298 1866.17 49.0087 1888.14 51.7231 C 1896.88 52.8027 1909.57 60.698 1915.77 66.6659 C 1930.52 81.7092 1933.79 95.8505 1933.72 115.963 C 1933.59 148.432 1933.92 180.967 1933.62 213.429 C 1933.41 235.208 1934.69 258.895 1931.28 280.3 C 1929.39 292.178 1913.6 312.051 1901.67 315.401 L 1898.19 317.53 L 1895.26 318.957 C 1897.1 320.671 1897.23 320.129 1900.39 320.486 C 1909.28 319.756 1918.22 320.041 1927.15 319.971 C 1950.05 319.79 1968.48 319.149 1987.3 335.056 C 1998.31 344.362 2007.16 360.069 2008.23 374.554 C 2009.58 383.719 2009.42 544.085 2007.48 548.751 C 2005.59 563.575 1997.88 576.196 1986.39 585.641 C 1975.62 596.492 1954.17 600.088 1939.46 599.334 C 1925.79 598.634 1901.87 600.368 1889.32 598.886 L 1874.82 599.116 C 1888.33 610.185 1899.45 622.391 1900.4 640.693 C 1901.74 666.592 1901.17 694.244 1901.16 720.32 L 1901.12 775.989 C 1901.06 813.682 1904.9 836.729 1867.35 858.386 C 1878.57 859.266 1883.63 859.685 1894.12 864.621 C 1913.62 872.543 1928.3 895.938 1928.43 916.491 C 1928.59 942.856 1929.62 971.606 1928.66 997.827 C 1927.75 1022.74 1932.65 1073.53 1923.29 1095.44 C 1917.15 1109.79 1905.51 1121.08 1890.97 1126.76 C 1877.23 1132.1 1848.68 1132.15 1833.78 1130.83 C 1816.6 1131.54 1794.6 1130.99 1777.22 1130.97 L 1669.41 1130.86 L 1600.14 1130.91 C 1575.31 1130.91 1553.13 1134.01 1531.43 1119.49 C 1519.37 1113.05 1508.49 1126.6 1496.73 1130.94 C 1489.84 1134.03 1484.02 1134.86 1476.53 1135.38 C 1370.37 1142.79 1263.17 1142.06 1156.98 1135.51 C 1140.74 1134.51 1123.46 1132.03 1112.6 1119.06 C 1077.87 1112.76 1011.75 1094.39 988.169 1069.16 C 987.978 1069.05 987.775 1068.97 987.597 1068.84 C 986.212 1067.83 985.029 1065.89 984.888 1064.19 C 984.692 1061.82 985.582 1060.2 987.09 1058.44 C 1006.43 1035.8 1136.34 1028.92 1168.83 1026.84 C 1129.47 976.247 1109.76 899.59 1096.03 837.584 C 1097.43 836.393 1098.86 835.252 1100.34 834.165 C 1134.38 809.498 1290.17 806.063 1335.07 807.059 C 1363.09 807.681 1423.98 810.548 1452 815.223 L 1451.79 702.628 C 1451.78 682.053 1450.51 656.2 1453.84 636.102 C 1455.91 626.593 1461.74 618.021 1468.14 611.139 C 1489.56 588.091 1522.06 592.853 1551.15 593.001 L 1614.43 593.111 C 1581.87 570.163 1582.62 555.872 1583.04 518.567 C 1583.21 502.8 1583 485.594 1582.97 469.74 L 1582.93 410.525 C 1582.92 371.534 1578.63 346.928 1618.06 324.525 C 1619.84 323.933 1620.69 323.255 1622.24 322.242 C 1620.37 320.814 1615.02 321.24 1612.31 321.239 C 1570.88 321.284 1519.19 329.69 1504.95 279.793 C 1501.24 266.794 1502.64 238.005 1502.62 223.712 L 1502.55 125.713 C 1502.64 102.074 1501.78 85.6258 1519.69 67.1947 C 1541.05 45.2202 1575.51 49.9744 1604.01 49.9883 L 1695.84 50.2199 z" fill="rgb(33,28,21)"/>
    <path d="M 1889.32 598.886 C 1882.89 596.062 1860.35 596.028 1852.75 596.039 L 1783.44 596.242 C 1765.46 596.294 1740 598.47 1724.37 589.234 C 1691.91 570.056 1696 540.989 1696.02 508.979 L 1696.08 445.037 C 1696.07 421.137 1695.1 395.406 1696.6 371.625 C 1697.43 363.714 1701.31 355.592 1705.38 349.017 C 1724.77 317.716 1757.99 322.327 1790.12 322.427 L 1857.17 322.519 C 1883.77 322.538 1929.88 320.309 1953.85 323.331 C 1963.5 324.548 1972.73 327.95 1980.86 333.28 C 2000.57 346.383 2003.38 361.174 2007.4 381.661 L 2008.23 374.554 C 2009.58 383.719 2009.42 544.085 2007.48 548.751 C 2005.59 563.575 1997.88 576.196 1986.39 585.641 C 1975.62 596.492 1954.17 600.088 1939.46 599.334 C 1925.79 598.634 1901.87 600.368 1889.32 598.886 z" fill="rgb(65,125,75)"/>
    <path d="M 1986.39 585.641 C 1987.94 580.016 1991.91 578.536 1995.28 573.545 C 1999.82 566.827 2003.27 559.406 2005.14 551.506 C 2005.34 550.663 2005.93 547.317 2006.54 547.334 C 2007.02 547.663 2007.19 548.202 2007.48 548.751 C 2005.59 563.575 1997.88 576.196 1986.39 585.641 z" fill="rgb(33,28,21)"/>
    <path d="M 1653.83 52.8116 C 1678.82 53.0805 1703.82 53.0999 1728.81 52.8698 C 1740.83 52.8377 1764.2 52.0185 1774.62 54.5065 C 1784.9 56.9777 1794.25 62.3739 1801.53 70.043 C 1808.81 77.6985 1813.72 87.297 1815.66 97.6802 C 1817.94 109.541 1817.2 124.269 1817.18 136.443 C 1817.11 178.19 1817.38 219.944 1817.19 261.69 C 1817.14 274.554 1813.15 284.023 1807.65 295.165 C 1805.21 297.184 1803.41 299.578 1801.13 301.764 C 1789.54 312.852 1778.13 318.975 1761.96 319 C 1700.17 319.094 1638.46 318.968 1576.67 318.823 C 1567.38 318.801 1557.8 318.876 1548.63 317.33 C 1519.01 310.411 1505.27 288.168 1505.35 259.404 C 1505.21 219.371 1505.34 179.342 1505.12 139.306 C 1505.04 125.352 1504.33 108.722 1506.83 95.1551 C 1510.12 77.3149 1528.17 59.1869 1545.81 55.0518 C 1560.85 51.5291 1579.28 52.7438 1594.94 52.8146 C 1614.57 53.0105 1634.2 53.0095 1653.83 52.8116 z" fill="rgb(251,248,241)"/>
    <path d="M 1101.07 845.604 C 1114.62 854.082 1136.53 859.08 1152.26 861.534 C 1160.28 863.446 1185.15 866.899 1194.12 867.103 C 1201.61 867.988 1211.16 869.173 1218.7 869.176 C 1228.34 870.998 1262.23 871.727 1271.64 872.21 C 1320.99 874.743 1484.71 871.608 1523.32 848.127 C 1524.82 848.878 1524.91 848.736 1526.03 849.875 C 1494.14 933.895 1479.76 1031.16 1388.67 1072.03 C 1386.05 1073.21 1383.42 1074.36 1380.78 1075.49 C 1374.35 1077.35 1361.03 1081.73 1355.03 1082.67 C 1304.33 1090.61 1245.82 1082.61 1203.15 1053.83 C 1188.66 1044 1175.88 1031.84 1165.36 1017.83 C 1134.73 976.432 1110.91 896.734 1101.07 845.604 z" fill="rgb(247,232,196)"/>
    <path d="M 1502.09 596.266 C 1504.05 596.164 1506.01 596.077 1507.97 596.004 C 1550.56 594.402 1597.53 596.845 1640.75 595.891 C 1665.73 598.311 1700.65 592.241 1724.78 597.477 C 1768.45 606.953 1767.36 653.848 1765.96 687.573 C 1764.13 731.597 1768.87 773.976 1764.45 817.515 C 1763.49 827.046 1755.88 838.042 1749.61 844.71 C 1731.49 839.055 1712.58 832.039 1694.75 825.537 L 1624.52 800.218 C 1601.61 792.028 1584.13 784.039 1559.71 795.722 C 1543.13 803.66 1534.15 817.255 1528.17 834.029 C 1509.51 822.787 1476.42 818.006 1454.6 815.593 L 1454.57 701.948 C 1454.58 658.181 1445.16 607.789 1502.09 596.266 z" fill="rgb(251,248,241)"/>
    <path d="M 1529.01 853.682 C 1532.19 831.483 1533.26 817.754 1552.52 803.157 C 1580.87 781.67 1608.59 797.315 1637.22 807.59 L 1714.73 835.483 L 1774.26 856.564 C 1782.82 859.583 1793.09 864.064 1801.62 866.516 C 1824.24 873.017 1833.87 898.828 1827.67 920.81 C 1820.99 944.497 1809.89 970.209 1800.84 993.961 L 1775.58 1059.55 C 1768.59 1077.7 1762.84 1099.23 1748.5 1112.79 C 1720.91 1138.87 1690.07 1123.03 1659.95 1112.67 C 1640.73 1105.97 1621.39 1099.32 1602.47 1091.84 C 1610.07 1087.32 1641.78 1072.9 1642.11 1064.42 C 1642.69 1049.7 1601.27 1042.54 1589.88 1040.34 C 1560.58 1034.69 1530 1031.71 1500.18 1028.64 L 1493.34 1022.02 C 1527.17 1012.76 1560.13 996.679 1583.67 969.968 C 1599.81 951.619 1613.16 926.577 1610.99 901.255 C 1606.76 851.926 1567.16 851.719 1530 854.703 L 1529.01 853.682 z" fill="rgb(251,248,241)"/>
    <path d="M 1734.79 597.058 C 1779.22 602.217 1827.15 595.486 1871.53 600.835 C 1875.97 601.369 1884.31 610.222 1886.91 613.575 C 1901.4 630.689 1899.18 654.155 1899.15 675.386 L 1899.03 729.328 C 1898.98 756.199 1899.91 783.283 1898.34 810.324 C 1897.47 825.169 1889.35 838.505 1877.1 849.121 C 1857.38 866.218 1821.29 860.205 1797.11 860.797 C 1790.05 860.969 1760.63 849.136 1752.18 846.066 C 1761.84 834.834 1767.03 823.815 1768.57 808.884 C 1767.76 805.427 1768 770.029 1768 764.677 L 1768.17 654.796 L 1767.74 644.171 L 1767.43 642.387 C 1763.34 622.029 1756.35 611.424 1738.53 599.497 C 1737.29 598.671 1736.05 597.858 1734.79 597.058 z" fill="rgb(151,103,28)"/>
    <path d="M 1768.17 654.796 C 1769.02 660.221 1769.67 806.346 1768.57 808.884 C 1767.76 805.427 1768 770.029 1768 764.677 L 1768.17 654.796 z" fill="rgb(101,62,17)"/>
    <path d="M 1630.97 321.961 C 1644.68 322.541 1725.28 319.796 1731.67 324.606 C 1707.94 335.808 1693.47 353.179 1693.32 380.307 C 1693.01 435.583 1692.22 491.438 1693.88 546.674 C 1694.42 564.417 1708.08 582.109 1722.91 591.074 L 1727.16 593.296 L 1727.03 594.246 C 1725.14 594.455 1723.92 594.588 1722.02 594.587 C 1713.68 591.551 1685.89 593.278 1674.51 593.118 C 1637.98 592.604 1604.92 602.147 1588.3 558.936 C 1585.12 550.669 1585.52 537.259 1585.62 527.995 C 1586.24 476.709 1584.58 425.256 1586.08 374.01 C 1586.82 348.698 1608.09 329.176 1630.97 321.961 z" fill="rgb(151,103,28)"/>
    <path d="M 1450.64 1028.95 C 1481.19 1028.93 1615.2 1038.51 1635.69 1058.05 C 1637.1 1059.39 1637.73 1060.78 1638.23 1062.63 C 1637.96 1065.59 1636.72 1067.9 1634.4 1069.42 C 1615.98 1081.42 1529.21 1093.95 1511.08 1091.66 C 1510.64 1091.6 1510.2 1091.54 1509.75 1091.48 C 1497.27 1089.17 1474.02 1087.59 1461.24 1086.74 C 1433.86 1084.96 1406.46 1083.72 1379.04 1083.02 C 1375.87 1083.06 1373.39 1082.86 1370.27 1082.62 L 1370.04 1081.82 L 1374.92 1080.38 L 1386.57 1076.18 C 1414.14 1063.88 1430.54 1051.07 1450.64 1028.95 z" fill="rgb(201,147,47)"/>
    <path d="M 992.256 1069.37 C 989.064 1066.27 989.132 1067.23 988.184 1063.42 C 994.103 1039.02 1147.56 1031.03 1170.9 1029.17 C 1197.19 1056.35 1218.23 1069.39 1255.12 1080.31 C 1257.49 1080.81 1259.76 1080.8 1260.95 1082.33 C 1256.96 1083.26 1255.82 1083.17 1251.78 1083.09 C 1219.97 1083.76 1188.18 1085.23 1156.44 1087.52 C 1147.73 1088.22 1126.53 1090.02 1118.93 1091.99 C 1094.38 1094.42 1014.88 1079.68 992.256 1069.37 z" fill="rgb(201,147,47)"/>
    <path d="M 1322.98 809.166 C 1332.17 809.875 1346.27 810.254 1355.59 809.845 C 1383.13 811.246 1509.08 818.464 1525.89 836.437 C 1527.17 837.808 1527.14 838.772 1527.49 840.56 C 1526.29 843.791 1525.12 844.253 1522.29 846.07 C 1487.62 821.368 1322.37 822.322 1277.61 822.603 C 1249.85 822.777 1124.12 828.907 1106.71 846.512 C 1104.41 844.606 1102.48 842.842 1100.32 840.817 C 1097.91 813.657 1300.72 809.468 1322.98 809.166 z" fill="rgb(201,147,47)"/>
    <path d="M 1130.1 1092.77 C 1135.72 1091.24 1162.65 1089.53 1169.57 1089.11 C 1203.38 1087.09 1238.39 1085.62 1272.29 1085.46 C 1286.67 1086.21 1300.8 1087.74 1315.21 1088.24 C 1333.94 1088.89 1352.16 1084.68 1370.83 1085.29 C 1393.86 1086.05 1416.88 1086.91 1439.89 1088.05 C 1458.96 1089 1478.64 1091.64 1497.67 1091.93 L 1500.04 1093.97 C 1410.37 1101.34 1320.35 1103.49 1230.43 1100.43 C 1207.14 1099.6 1183.85 1098.51 1160.58 1097.16 C 1151.39 1096.6 1138.85 1095.15 1130.18 1094.91 L 1130.1 1092.77 z" fill="rgb(201,147,47)"/>
    <path d="M 1537.75 896.458 C 1558.48 894.914 1568.44 906.189 1559.31 925.974 C 1549.03 948.225 1525.6 964.874 1503.45 974.036 C 1496.04 976.764 1488.22 979.246 1480.7 981.739 C 1493.18 955.592 1502.73 925.796 1512.09 898.197 C 1519.28 896.978 1530.18 896.794 1537.75 896.458 z" fill="rgb(251,248,241)"/>
    <path d="M 1599.85 1094.25 C 1625.46 1104.31 1662.33 1116.46 1689.06 1125.4 L 1693.85 1127.12 L 1693.89 1127.8 C 1691.1 1127.94 1688.22 1128.14 1685.43 1128.08 C 1657.54 1127.61 1629.4 1128.47 1601.51 1128.24 C 1574.68 1128.03 1556.32 1131.88 1532.23 1116.68 C 1532.48 1116.52 1599.32 1094.35 1599.85 1094.25 z" fill="rgb(151,103,28)"/>
    <path d="M 1486.15 1023.99 C 1492.08 1023.49 1500.64 1027.85 1491.16 1028.07 C 1487.64 1027.8 1483.89 1027.42 1480.4 1027.22 L 1479.57 1026.08 L 1478.92 1026.77 L 1478.83 1026.55 L 1478.69 1026.58 C 1479.51 1025.58 1484.57 1024.44 1486.15 1023.99 z" fill="rgb(247,232,196)"/>
    <path d="M 1121.98 1094.6 C 1124.62 1093.16 1127.16 1092.91 1130.1 1092.77 L 1130.18 1094.91 C 1127.05 1094.94 1125.08 1094.83 1121.98 1094.6 z" fill="rgb(151,103,28)"/>
    <path d="M 1497.67 1091.93 C 1502.39 1092.1 1502.79 1092.07 1507.31 1093.69 C 1504.89 1093.86 1502.47 1093.95 1500.04 1093.97 L 1497.67 1091.93 z" fill="rgb(151,103,28)"/>
    <path d="M 1297.86 343.828 L 1298.99 344.565 C 1299.11 347.898 1286.38 356.706 1283.47 360.212 C 1211.17 447.255 1357.72 442.536 1354.79 509.821 C 1352.79 555.526 1260.77 559.837 1257.8 602.589 C 1254.04 656.653 1358.77 653.995 1358.27 704.372 C 1351.89 739.47 1301.53 725.224 1295.06 783.162 L 1294.15 783.094 C 1292.47 780.601 1293.25 777.24 1293.69 774.001 C 1297.86 743.27 1321.62 736.932 1343.4 722.057 C 1348.51 718.57 1355.63 710.778 1356.1 703.899 C 1357.98 675.994 1306 660.544 1286.38 647.231 C 1279.47 642.877 1267.46 634.991 1263.14 628.151 C 1226.6 570.402 1317.72 561.137 1343.04 529.286 C 1347.48 523.702 1351.99 515.865 1352.16 508.765 C 1353.51 452.093 1255.87 457.011 1262.33 396.028 C 1264.74 373.656 1280.98 356.844 1297.86 343.828 z" fill="rgb(33,28,21)"/>
  </svg>
</svg>
