<svg xmlns="http://www.w3.org/2000/svg" viewBox="250 250 1548 1556">
<path d="M 1086.83 265.063 C 1103.45 265.147 1120.06 265.324 1136.68 265.594 C 1145.3 265.721 1160.83 266.346 1168.86 265.365 C 1170.75 274.918 1171.55 278.87 1174.77 287.942 C 1176.33 290.842 1178.01 293.676 1179.81 296.437 C 1188.84 310.027 1202.95 319.415 1218.97 322.485 C 1234.02 325.361 1249.59 322.101 1262.22 313.43 C 1280.35 301.15 1286.8 286.566 1290.85 265.956 C 1318.07 266.012 1344.87 265.417 1372.2 265.827 C 1374.01 277.011 1375.25 283.654 1381.37 293.714 C 1398.63 322.104 1435.46 333.347 1464.32 314.419 C 1483.97 301.533 1489.52 287.496 1494.58 265.355 C 1504.61 265.341 1567.62 264.697 1574.24 266.602 C 1575.08 275.458 1575.79 279.14 1578.35 287.786 C 1587.64 304.097 1599.26 316.427 1618.02 321.599 C 1633.26 325.904 1649.59 323.933 1663.37 316.126 C 1677.05 308.142 1686.97 295.018 1690.92 279.678 C 1691.89 275.906 1692.79 272.118 1693.63 268.316 C 1725.19 276.036 1751.6 293.669 1768.68 321.647 C 1780.67 341.668 1786.61 364.73 1785.79 388.053 L 1785.86 407.724 C 1766.37 412.119 1751.54 419.57 1740.36 436.983 C 1738.25 440.256 1736.35 443.662 1734.69 447.18 C 1731.67 456.063 1731.16 459.806 1729.69 469.083 C 1731.31 503.828 1748.79 530.933 1785.45 535.448 C 1785.88 545.029 1786 554.621 1785.82 564.21 L 1786 630.424 C 1765.8 635.127 1751.63 641.825 1740.22 660.258 C 1736.44 666.435 1733.51 673.101 1731.54 680.071 C 1730.19 688.523 1729.86 691.846 1729.83 700.381 C 1735.08 732.261 1752.66 752.962 1785.23 758.432 C 1785.72 768.301 1785.75 777.165 1785.71 787 L 1786.05 852.547 C 1773.36 855.329 1765.32 857.808 1754.82 865.72 C 1753.34 866.831 1747.76 871.601 1746.79 872.054 C 1734.48 889.349 1735.99 890.585 1730.28 908.772 C 1729.85 922.057 1730.38 929.46 1735.02 942.228 C 1744.03 959.351 1755.28 972.284 1774.63 977.962 C 1778.13 978.987 1781.69 979.793 1785.29 980.375 C 1785.58 990.78 1785.69 1001.19 1785.63 1011.6 C 1786.16 1033.96 1785.62 1056.29 1786.07 1078.5 L 1773.02 1081.61 C 1744.72 1094.75 1731.4 1111.49 1729.7 1143.3 C 1731.6 1176.28 1751.8 1202.43 1785.65 1206.65 C 1785.74 1214.56 1785.94 1222.74 1785.73 1230.62 L 1786.01 1302.57 C 1772.29 1305.25 1765.76 1307.81 1754.16 1316.05 C 1752.66 1317.11 1747.45 1321.75 1746.8 1322.07 C 1734.79 1338.57 1727.54 1354.58 1730.74 1375.61 C 1733.37 1392.98 1742.85 1408.57 1757.05 1418.9 C 1766.04 1425.31 1774.08 1428.16 1785.02 1429.35 L 1785.93 1429.43 C 1785.86 1461.82 1785.99 1494.21 1786.31 1526.6 C 1755.29 1530.09 1736.32 1551.08 1730.23 1580.81 C 1729.29 1601.28 1732.48 1618.31 1746.84 1634.04 C 1756.7 1645.04 1770.31 1651.97 1785.01 1653.47 C 1785.42 1665.79 1786.51 1679.92 1785.05 1692.08 C 1779.01 1742.7 1742.41 1781.56 1693.17 1792.42 C 1692.41 1773.83 1686.77 1758.69 1672.86 1745.88 C 1661.55 1735.32 1646.45 1729.78 1630.99 1730.5 C 1612.42 1731.49 1598.33 1740.3 1586.3 1753.86 C 1578.08 1767.67 1574.2 1775.48 1573.62 1791.95 L 1572.82 1793.66 C 1566.02 1794.46 1549.69 1794.06 1542.29 1794.03 C 1526.97 1793.96 1510.25 1794.39 1495.09 1793.64 L 1494.25 1792.22 C 1493.55 1780.51 1491.31 1770.81 1485.34 1760.62 C 1477.12 1746.37 1463.46 1736.08 1447.5 1732.12 C 1427.83 1727.34 1413.42 1732.83 1397.14 1742.88 C 1381.13 1760.56 1375.18 1767.4 1373.36 1791.94 L 1372.78 1793.62 C 1369.38 1794.46 1355.06 1793.92 1350.43 1793.98 C 1330.66 1794.22 1310.58 1793.69 1290.81 1794.29 C 1290.59 1792.87 1290.5 1790.78 1290.39 1789.3 C 1281.33 1737.36 1234.98 1713.33 1190.18 1746.09 C 1179.01 1758 1175.22 1765.1 1170.72 1780.73 L 1169.42 1793.96 C 1142.17 1793.49 1113.96 1793.8 1086.67 1793.77 C 1085.78 1778.67 1082.33 1766.96 1073.17 1754.76 C 1063.68 1741.92 1049.36 1733.51 1033.52 1731.47 C 1007.67 1728.32 997.727 1738.6 980.696 1752.04 C 974.312 1761.74 971.614 1765.57 967.842 1776.56 C 967.291 1780.75 966.498 1790.75 964.322 1793.58 L 960.691 1794.22 C 935.374 1793 907.808 1795.01 882.817 1793.43 C 883.47 1778.81 878.655 1765.3 869.619 1753.86 C 859.573 1740.97 844.716 1732.72 828.464 1731.01 C 812.625 1729.41 796.822 1734.36 784.722 1744.71 C 768.93 1758.11 763.681 1774.07 762.317 1794.04 C 734.883 1793.91 707.448 1793.94 680.014 1794.11 C 677.985 1771.61 671.558 1754.73 652.254 1741.37 C 639.506 1732.55 623.756 1729.21 608.525 1732.09 C 589.342 1735.8 577.829 1746.19 567.312 1761.79 C 564.775 1767.49 562.677 1771.85 561.039 1777.89 C 560.088 1782.38 559.492 1789.15 558.932 1793.86 L 478.866 1793.75 C 477.653 1774.29 474.135 1760.98 459.452 1746.76 C 448.243 1735.91 431.702 1729.02 416.038 1729.92 C 395.36 1731.11 385.338 1738.75 371.712 1753.19 C 364.318 1764.55 360.533 1770.89 358.092 1784.51 C 357.88 1788.79 358.622 1788.37 356.392 1790.79 C 340.417 1792.55 307.436 1769.59 296.21 1757.82 C 265.538 1725.65 264.346 1695.02 264.766 1653.64 C 277.709 1651.67 287.213 1648.23 297.342 1639.78 C 310.364 1628.88 318.577 1613.3 320.207 1596.4 C 321.793 1579.05 316.352 1561.79 305.104 1548.49 C 294.713 1536.03 279.796 1528.2 263.635 1526.73 L 263.368 1430.3 C 276.808 1428.46 286.326 1425.34 296.936 1416.55 C 310.171 1405.46 318.507 1389.61 320.139 1372.42 C 321.76 1355.14 316.344 1337.93 305.116 1324.68 C 295.391 1313.28 279.768 1303.96 264.693 1302.87 C 263.361 1296.63 264.039 1265.92 264.122 1258.38 C 263.566 1241.93 263.907 1224.28 263.952 1207.73 C 274.037 1205.7 282.531 1202.83 291.14 1197.1 C 305.728 1187.39 315.841 1172.27 319.235 1155.07 C 326.648 1116.5 301.563 1085.93 264.243 1078.64 C 263.679 1046.39 263.918 1013.69 263.668 981.361 C 294.504 974.519 308.839 961.451 318.775 931.351 C 320.052 924.723 320.427 917.952 319.89 911.223 C 317.937 888.093 303.991 867.754 282.301 857.626 C 277.841 855.543 267.481 854.22 264.205 851.488 L 264.009 847.22 L 263.662 758.546 C 343.551 744.921 335.175 637.921 263.871 630.864 C 263.909 604.155 265.162 560.827 263.079 535.483 C 273.645 533.223 280.457 532.062 289.868 526.57 C 304.33 517.962 314.748 503.927 318.8 487.592 C 323.01 470.593 320.169 452.614 310.922 437.742 C 299.426 419.217 284.573 411.977 264.147 407.361 C 264.019 374.977 263.055 351.307 280.909 322.335 C 298.952 293.054 325.649 275.524 358.607 267.372 C 358.753 274.174 358.997 276.102 360.328 282.794 C 370.161 304.224 386.712 320.499 410.923 323.645 C 426.529 325.616 442.273 321.224 454.606 311.458 C 469.366 299.736 476.178 283.469 478.392 265.238 C 496.852 265.244 541.954 264.246 558.311 266.094 L 559.299 267.753 C 561.762 285.756 568.057 300.224 583.005 311.526 C 596.004 321.387 612.482 325.478 628.584 322.843 C 644.462 320.298 658.645 311.464 667.931 298.334 C 675.558 287.668 677.782 278.429 680.753 265.898 C 693.798 265.868 750.089 263.899 760.225 266.552 L 761.13 269.062 C 762.626 274.769 764.046 280.576 766.31 286.035 C 777.627 313.331 808.813 329.789 837.636 321.805 C 853.878 317.178 867.605 306.268 875.779 291.49 C 880.821 282.525 882.599 275.233 883.395 265.074 C 910.001 265.157 939.047 264.67 965.45 265.5 C 968.392 285.145 974.25 299.521 990.889 311.637 C 1003.56 321.007 1019.46 324.889 1035.02 322.41 C 1050.97 319.83 1065.18 310.861 1074.37 297.572 C 1081.03 287.869 1085.3 276.729 1086.83 265.063 z" fill="rgb(33,28,21)"/>
<path d="M 1091.72 270.104 C 1115.95 270.9 1140.19 271.218 1164.44 271.059 C 1166.61 280.587 1168.83 286.427 1173.4 295.073 C 1200.86 342.532 1265.56 338.466 1288.76 290.077 C 1291.9 283.521 1293.25 277.998 1294.93 270.944 L 1367.42 270.941 C 1369.98 282.404 1373.05 290.959 1379.98 300.622 C 1390.5 315.335 1406.53 325.16 1424.42 327.856 C 1460.94 333.364 1492.5 306.653 1497.41 270.801 C 1519.33 270.82 1548.46 270.043 1569.61 271.275 C 1571.26 279.336 1572.11 284.04 1575.36 291.606 C 1584.47 308.629 1596.32 320.516 1615.31 326.155 C 1632.18 331.238 1650.38 329.253 1665.76 320.657 C 1682.21 311.417 1690.94 297.979 1695.82 280.129 C 1696.37 278.125 1696.89 276.114 1697.38 274.097 C 1730.56 286.127 1753.27 300.918 1769.47 333.867 C 1782.38 360.133 1779.71 376.283 1781.36 402.512 C 1760.66 410.092 1742 418.68 1732.47 440.168 C 1729.85 446.104 1727.13 452.249 1726.64 458.81 C 1716.74 494.389 1745.51 533.856 1779.22 540.384 C 1780.97 540.724 1780.89 546.89 1780.99 548.428 L 1781.16 626.328 C 1753.2 633.592 1739.82 645.129 1728.73 671.988 C 1726.54 680.515 1724.88 686.522 1724.84 695.425 C 1725.82 730.155 1748.09 755.944 1781.45 764.438 C 1779.9 775.932 1780.96 807.391 1781.14 819.84 L 1781.08 848.411 C 1760.53 853.542 1743.85 862.871 1734.29 882.78 C 1731.11 887.132 1727.9 896.352 1727.27 901.6 C 1723.81 917.994 1726.05 935.078 1733.62 950.026 C 1746.66 972.512 1757.73 976.664 1780.43 986.726 C 1781.08 987.017 1780.91 994.322 1780.88 995.515 C 1781.05 1021.72 1781.37 1047.93 1781.84 1074.13 C 1766.12 1078.2 1743.64 1088.17 1736.57 1104.06 C 1726.21 1117.77 1723.95 1134.67 1725.2 1151.35 C 1727.09 1171.27 1735.33 1183.44 1749.5 1196.6 C 1758.29 1204.76 1779.13 1211.68 1780.8 1213.85 L 1780.94 1215.7 C 1780.92 1242.27 1780.51 1270.96 1781.71 1297.42 C 1765.04 1302.24 1742.39 1312.61 1735.47 1329.96 C 1726.38 1343.15 1723.12 1362.43 1726.1 1378.13 C 1729.67 1397.08 1740.61 1413.85 1756.51 1424.76 C 1764.85 1430.4 1771.46 1432.72 1780.99 1435.62 C 1780.72 1464.19 1780.91 1492.75 1781.56 1521.31 C 1754.14 1528.75 1731.28 1546.09 1726.61 1575.79 C 1721.99 1590.78 1725.81 1609.72 1733.1 1623.38 C 1741.7 1639.58 1756.43 1651.65 1774 1656.9 C 1776.28 1657.56 1778.58 1658.15 1780.9 1658.66 C 1781.1 1680.19 1781.88 1695.99 1774.02 1716.57 C 1759.6 1754.39 1735.74 1773.37 1698.55 1786.27 C 1694.2 1764.71 1687.32 1748.17 1668.06 1735.45 C 1654.22 1726.13 1637.17 1722.93 1620.9 1726.58 C 1604.28 1730.2 1582.42 1743.18 1576.61 1759.75 C 1571.74 1769.46 1569.07 1777.78 1568.72 1788.82 C 1547.93 1789.31 1517.48 1787.72 1498.25 1789.26 C 1496.65 1766.81 1488.64 1749.48 1469.54 1736.48 C 1455.48 1726.95 1438.18 1723.42 1421.51 1726.69 C 1403.84 1730.13 1390.3 1740.29 1380.26 1754.97 C 1374.05 1763.54 1369.41 1775.7 1368.48 1786.27 L 1367.36 1788.25 C 1362.01 1789.33 1299.85 1789.81 1295.25 1788.63 L 1294.63 1788.03 C 1294.06 1783.5 1292.98 1779.27 1291.96 1774.82 C 1288.43 1759.65 1278.15 1745.42 1265.26 1736.74 C 1250.78 1727.16 1233.05 1723.84 1216.09 1727.51 C 1198.2 1731.25 1185.24 1740.91 1175.38 1756.04 C 1171.74 1762.26 1169.64 1767.13 1167.53 1774.1 L 1164.57 1788.96 L 1092.26 1788.93 C 1091.73 1786.04 1091.12 1783.16 1090.44 1780.3 C 1075.69 1717.97 1001.74 1705.06 968.226 1762.24 L 964.165 1772.15 C 962.737 1777.95 961.242 1783.13 960.734 1789.09 C 936.395 1788.67 911.92 1789.4 887.561 1788.82 C 886.35 1772.75 882.149 1760.73 871.522 1748.37 C 860.386 1735.17 844.354 1727.08 827.124 1725.96 C 789.523 1723.58 759.824 1751.74 757.757 1788.89 C 752.312 1789.53 738.338 1789.19 732.566 1789.18 L 683.49 1789.22 C 683.265 1782.5 682.886 1777.35 680.875 1770.91 C 675.571 1754.34 663.901 1740.56 648.434 1732.6 C 613.408 1714.89 575.734 1731.96 559.37 1766.29 C 558.431 1769.2 557.131 1772.8 556.66 1775.77 C 555.203 1779.11 554.507 1785.1 553.893 1788.89 L 483.841 1788.96 C 483.213 1782.9 482.585 1777.87 480.831 1771.99 C 475.596 1754.77 463.625 1740.39 447.636 1732.11 C 417.063 1716.23 378.526 1726.91 362.678 1758.06 C 359.178 1763.62 358.686 1764.84 356.48 1770.95 C 354.622 1776.07 354.045 1780.48 353.101 1785.82 C 316.971 1773.41 291.289 1754.88 277.082 1717.98 C 269.138 1697.34 269.428 1680.29 268.936 1658.63 C 279.535 1656.25 287.086 1653.66 296.094 1647.25 C 311.314 1636.26 321.452 1619.59 324.212 1601.02 C 327.107 1582.22 323.193 1563.65 311.716 1548.32 C 301.445 1534.34 286.033 1525.01 268.878 1522.39 C 268.686 1493.62 268.698 1464.85 268.913 1436.08 C 278.61 1433.58 287.248 1430 295.52 1424.27 C 310.864 1413.61 321.293 1397.24 324.471 1378.83 C 327.56 1359.65 322.891 1340.04 311.493 1324.31 C 301.137 1310.2 285.58 1300.81 268.273 1298.22 C 271.605 1285.72 266.488 1216.54 270.026 1211.62 C 279.007 1209.82 287.53 1206.22 295.078 1201.03 C 310.301 1190.56 321.222 1172.79 324.369 1154.66 C 327.431 1136.05 322.985 1117 312.008 1101.67 C 301.707 1087.19 286.76 1077.41 269.212 1074.42 C 269.003 1044.91 268.564 1015.4 267.895 985.896 C 299.089 978.221 320.301 958.572 324.381 925.673 C 328.304 903.811 318.679 879.654 302.434 864.971 C 291.784 855.345 282.362 851.666 268.878 847.689 C 269.48 820.197 268.939 790.997 268.865 763.379 C 298.444 755.6 318.751 738.019 324.385 706.747 C 327.681 688.427 323.605 669.547 313.045 654.219 C 302.071 638.536 287.81 629.149 268.975 625.912 L 268.651 540.342 C 278.86 537.906 287.105 535.076 295.856 529.108 C 310.531 519.121 320.687 503.763 324.133 486.35 C 327.739 467.248 323.605 447.496 312.641 431.444 C 301.768 415.83 287.586 406.977 268.919 403.704 C 268.662 377.171 268.393 357.32 280.788 332.892 C 296.632 301.669 320.519 284.648 352.96 273.782 C 354.949 280.271 356.383 285.986 359.788 291.872 C 360.279 293.992 361.892 296.386 363.043 298.3 C 380.641 327.563 422.501 338.147 451.54 319.724 C 470.491 307.701 478.404 291.449 483.416 270.449 C 499.286 271.776 537.141 270.766 554.529 270.787 C 559.405 291.389 566.169 307.464 585.029 319.297 C 599.621 328.29 617.198 331.088 633.861 327.071 C 650.992 323.009 665.765 312.217 674.844 297.133 C 680.467 287.917 682.041 281.085 684.867 270.89 C 705.425 270.906 738.526 271.93 757.824 270.478 C 756.955 282.11 764.625 296.815 772.093 305.521 C 783.855 319.186 800.598 327.573 818.585 328.811 C 835.554 329.975 852.283 324.295 865.035 313.039 C 878.62 301.173 884.816 288.133 888.793 270.95 L 961.475 270.855 C 968.723 308.314 998.948 334.658 1038.13 326.939 C 1055.38 323.563 1070.49 313.275 1079.96 298.468 C 1085.76 289.556 1089.04 280.337 1091.72 270.104 z" fill="rgb(201,147,47)"/>
<path d="M 513.382 370.405 C 528.117 367.849 564.405 369.608 580.583 369.668 L 697.632 369.929 L 1074.24 370.097 L 1399.63 370.184 L 1487.44 370.031 C 1508.01 369.916 1530.33 368.852 1550.64 371.236 C 1624 379.849 1679.14 439.92 1685.93 512.762 C 1687.98 534.797 1686.82 558.333 1686.77 580.386 L 1686.78 694.768 L 1686.89 1069.77 L 1686.94 1393.39 L 1686.86 1488.84 C 1686.84 1508.88 1687.51 1533.37 1685.06 1552.76 C 1681.03 1583.04 1668.6 1611.58 1649.17 1635.15 C 1620.67 1670.13 1585.04 1685.41 1541.21 1689.92 C 1478.04 1691.23 1412.45 1690.01 1349.06 1690.16 L 860.972 1690.02 L 622.295 1690.06 L 552.505 1690.23 C 537.368 1690.32 518.567 1690.94 503.91 1689.23 C 475.952 1686.25 449.431 1675.33 427.472 1657.77 C 393.32 1629.92 371.724 1589.56 367.493 1545.69 C 365.442 1525.4 366.319 1484.81 366.307 1463.66 L 365.983 1323.02 L 366.45 855.572 L 366.656 634.279 C 366.428 606.991 366.426 579.701 366.649 552.413 C 366.753 538.975 366.441 519.641 368.109 506.726 C 372.342 476.288 385.067 447.66 404.825 424.122 C 434.163 388.693 468.587 374.727 513.382 370.405 z" fill="rgb(247,232,196)"/>
<path d="M 573.667 397.421 C 579.329 396.61 597.263 396.872 603.504 396.866 L 659.537 396.854 L 854.912 396.73 L 1313.23 396.707 L 1425.54 396.676 C 1455.65 396.663 1497.86 394.479 1525.53 401.574 C 1569.38 412.924 1606.84 441.414 1629.5 480.647 C 1641.49 501.226 1649.05 524.087 1651.69 547.762 C 1654.09 568.094 1653.13 600.004 1653.14 621.687 L 1653.14 746.318 L 1653.22 885.398 C 1653.22 896.964 1654.08 943.301 1651.73 952.069 C 1649.12 954.411 1650.65 953.489 1646.55 954.113 C 1640.42 951.754 1641.24 947.261 1641.19 940.844 L 1641.11 672.076 L 1641.13 598.694 C 1641.14 581.087 1641.78 561.457 1639.23 544.183 C 1636.03 522.436 1628.36 501.587 1616.7 482.948 C 1593.99 446.216 1559.18 422.345 1517.47 412.304 C 1495.62 407.766 1470.99 408.681 1448.52 408.7 L 1376.97 408.725 L 1111 408.584 L 743.414 408.768 L 638.899 408.614 C 616.656 408.518 588.157 407.922 566.158 410.03 C 493.566 416.988 430.246 466.089 416.755 539.503 C 413.812 555.515 414.569 579.101 414.582 595.979 L 414.676 669.922 L 414.786 858.56 C 414.843 870.66 417.26 906.766 410.678 914.908 C 407.589 916.129 409.141 916.049 405.858 914.987 C 403.834 912.861 403.158 910.996 403.099 908.034 C 402.687 887.325 402.825 866.236 402.802 845.539 L 402.707 719.38 L 402.504 616.747 C 402.212 556.642 398.64 508.603 441.557 459.144 C 476.739 418.6 521.031 401.66 573.667 397.421 z" fill="rgb(33,28,21)"/>
<path d="M 404.202 1042.68 C 407.908 1042.6 409.165 1042.28 412.532 1043.92 C 415.738 1047.93 414.358 1083.99 414.333 1091.57 L 414.601 1154.38 L 414.842 1380.65 C 414.816 1419.83 414.517 1459.63 414.95 1498.43 C 415.628 1560.2 455.855 1617.07 513.898 1638.29 C 544.408 1649.45 577.647 1646.89 609.708 1646.85 L 711.886 1646.76 L 1044.35 1646.64 L 1147.71 1646.77 C 1164.03 1646.8 1180.71 1646.8 1197.05 1646.94 C 1200.46 1646.97 1201.38 1648 1203.43 1649.93 C 1204.53 1653.8 1204.17 1654.2 1202.99 1658.24 C 1196.13 1659.79 1153.85 1658.89 1144.21 1658.89 L 996.537 1658.83 L 703.64 1658.78 C 653.86 1658.81 602.944 1659.47 553.215 1658.57 C 497.595 1657.56 443.267 1617.6 419.556 1567.69 C 410.47 1548.69 405.018 1528.16 403.481 1507.16 C 402.016 1488.35 402.783 1459.91 402.762 1440.55 L 402.641 1321.07 L 402.746 1151.45 C 402.71 1135.1 400.535 1053.15 404.202 1042.68 z" fill="rgb(33,28,21)"/>
<path d="M 1643.52 1043.73 C 1648.08 1044.12 1648.51 1043.8 1651.58 1046.34 C 1655.04 1053.43 1652.9 1070.64 1652.97 1080.52 L 1653.17 1367.95 L 1653.44 1446.84 C 1653.57 1473.13 1654.95 1501.04 1649.33 1526.65 C 1642.61 1557.5 1627.21 1585.8 1604.94 1608.2 C 1583.03 1630.15 1555.61 1645.8 1525.56 1653.49 C 1495.96 1660.84 1442.25 1658.5 1409.3 1658.43 L 1272.87 1658.54 C 1267.96 1658.66 1261.68 1656.97 1263.02 1650.76 C 1269.72 1644.32 1309.71 1646.77 1321.14 1646.75 L 1431.94 1646.84 C 1452.63 1646.85 1480.59 1647.64 1500.74 1645.55 C 1517.14 1643.86 1533.15 1639.55 1548.18 1632.79 C 1588.01 1615.01 1618.66 1581.47 1632.81 1540.21 C 1636.91 1527.89 1639.5 1515.11 1640.54 1502.17 C 1641.8 1486.58 1641.3 1467.13 1641.28 1451.24 L 1641.2 1373.33 L 1641.16 1125.95 C 1641.13 1113.05 1639.47 1052.27 1643.52 1043.73 z" fill="rgb(33,28,21)"/>
<path d="M 549.106 439.24 C 551.076 439.246 550.828 439.438 552.815 440.212 C 555.065 442.99 554.962 442.081 555.195 446.164 C 555.229 446.758 554.027 450.018 553.979 450.032 C 545.992 452.369 537.756 454.342 529.85 456.913 C 499.56 466.772 472.842 489.768 457.313 517.419 C 453.378 524.427 451.877 532.849 446.046 538.495 C 441.379 537.169 441.634 537.11 439.532 533.822 C 438.868 527.364 441.162 524.128 443.813 518.427 C 464.353 474.256 502.066 448.458 549.106 439.24 z" fill="rgb(33,28,21)"/>
<path d="M 405.939 959.552 C 408.898 959.772 414.665 959.985 414.175 964.955 C 412.998 976.881 417.954 996.969 411.058 1006.38 C 395.931 1003.74 405.111 989.275 402.545 976.498 C 401.271 970.156 402.282 964.709 405.939 959.552 z" fill="rgb(33,28,21)"/>
<path d="M 1643.55 997.85 C 1646.44 996.368 1649.91 996.564 1652.61 998.361 C 1655.32 1000.16 1656.84 1003.28 1656.59 1006.52 C 1656.34 1009.75 1654.36 1012.6 1651.42 1013.97 C 1646.99 1016.02 1641.73 1014.15 1639.59 1009.76 C 1637.44 1005.37 1639.21 1000.08 1643.55 997.85 z" fill="rgb(33,28,21)"/>
</svg>
